<?xml version="1.0" encoding="UTF-8"?>
<svg id="Camada_2" data-name="Camada 2" xmlns="http://www.w3.org/2000/svg" viewBox="0 0 41 41">
  <defs>
    <style>
      .cls-1 {
        fill: #004fff;
      }

      .cls-1, .cls-2 {
        stroke-width: 0px;
      }

      .cls-2 {
        fill: #ff0049;
      }
    </style>
  </defs>
  <g id="Camada_1-2" data-name="Camada 1">
    <g>
      <circle class="cls-2" cx="20.5" cy="20.5" r="2.85"/>
      <path class="cls-1" d="M39,18.5h-1.31c-.92-7.95-7.24-14.27-15.19-15.19v-1.31c0-1.1-.9-2-2-2s-2,.9-2,2v1.31c-7.95.92-14.27,7.24-15.19,15.19h-1.31c-1.1,0-2,.9-2,2s.9,2,2,2h1.31c.92,7.95,7.24,14.27,15.19,15.19v1.31c0,1.1.9,2,2,2s2-.9,2-2v-1.31c7.95-.92,14.27-7.24,15.19-15.19h1.31c1.1,0,2-.9,2-2s-.9-2-2-2ZM27.62,22.5h6.03c-.87,5.74-5.41,10.27-11.14,11.14v-6.03c0-1.1-.9-2-2-2s-2,.9-2,2v6.03c-5.74-.87-10.27-5.41-11.14-11.14h6.03c1.1,0,2-.9,2-2s-.9-2-2-2h-6.03c.87-5.74,5.41-10.27,11.14-11.14v6.03c0,1.1.9,2,2,2s2-.9,2-2v-6.03c5.74.87,10.27,5.41,11.14,11.14h-6.03c-1.1,0-2,.9-2,2s.9,2,2,2Z"/>
    </g>
  </g>
</svg>