<?xml version="1.0" encoding="UTF-8"?>
<svg id="Camada_2" data-name="Camada 2" xmlns="http://www.w3.org/2000/svg" viewBox="0 0 58.31 64.9">
  <defs>
    <style>
      .cls-1 {
        fill: #004fff;
      }

      .cls-1, .cls-2 {
        stroke-width: 0px;
      }

      .cls-2 {
        fill: #ff0049;
      }
    </style>
  </defs>
  <g id="Camada_1-2" data-name="Camada 1">
    <g>
      <path class="cls-1" d="M52.1,32.06c-.4-.81-.4-1.76,0-2.57l5.9-11.81c.96-1.91-.43-4.16-2.57-4.16h-8.28v10.78c0,1.19-.97,2.16-2.16,2.16s-2.16-.97-2.16-2.16v-13.94c0-3.81-3.09-6.91-6.91-6.91H12.06c-.48,0-.86.39-.86.86v32.78c0,.48.39.86.86.86h21.51c1.15.05,2.07.98,2.07,2.14s-.97,2.16-2.16,2.16h-9.35c0,3.19,2.57,5.76,5.75,5.76h25.54c2.14,0,3.53-2.25,2.57-4.16l-5.9-11.8Z"/>
      <path class="cls-2" d="M3.45,0C1.55,0,0,1.55,0,3.45v57.99c0,1.91,1.55,3.45,3.45,3.45s3.45-1.55,3.45-3.45V3.45c0-1.91-1.55-3.45-3.45-3.45Z"/>
    </g>
  </g>
</svg>