<?xml version="1.0" encoding="UTF-8"?>
<svg id="Camada_2" data-name="Camada 2" xmlns="http://www.w3.org/2000/svg" viewBox="0 0 39.39 35.44">
  <defs>
    <style>
      .cls-1 {
        fill: #004fff;
      }

      .cls-1, .cls-2 {
        stroke-width: 0px;
      }

      .cls-2 {
        fill: #ff0049;
      }
    </style>
  </defs>
  <g id="Camada_1-2" data-name="Camada 1">
    <g>
      <path class="cls-2" d="M39.33,33.84l-1.8-5.4c-.1-.31-.07-.64.08-.93,1.35-2.63,1.91-5.73,1.33-9-.9-5.01-4.57-9.18-9.33-10.78,1.23,2.97,1.6,6.27.99,9.54-1.25,6.65-6.57,11.93-13.25,13.12-.86.16-1.74.23-2.61.25,2.03,2.19,4.74,3.74,7.76,4.29,3.25.58,6.34.04,8.96-1.29.29-.15.62-.18.92-.08l5.42,1.81c.95.32,1.85-.59,1.54-1.54Z"/>
      <path class="cls-1" d="M11.61.25C5.98,1.3,1.47,5.87.46,11.51c-.59,3.27-.03,6.37,1.33,9,.15.29.18.62.08.93L.06,26.84c-.32.95.59,1.85,1.54,1.54l5.42-1.81c.31-.1.64-.07.92.08,2.62,1.33,5.71,1.87,8.96,1.29,5.62-1.01,10.18-5.51,11.24-11.12C29.99,6.92,21.5-1.59,11.61.25ZM15.19,18.46h-7c-.69,0-1.25-.56-1.25-1.25s.56-1.25,1.25-1.25h7c.69,0,1.25.56,1.25,1.25s-.56,1.25-1.25,1.25ZM20.19,13.46h-12c-.69,0-1.25-.56-1.25-1.25s.56-1.25,1.25-1.25h12c.69,0,1.25.56,1.25,1.25s-.56,1.25-1.25,1.25Z"/>
    </g>
  </g>
</svg>