<?xml version="1.0" encoding="UTF-8"?>
<svg id="Camada_2" data-name="Camada 2" xmlns="http://www.w3.org/2000/svg" viewBox="0 0 35.87 36.63">
  <defs>
    <style>
      .cls-1 {
        fill: #004fff;
      }

      .cls-1, .cls-2 {
        stroke-width: 0px;
      }

      .cls-2 {
        fill: #ff0049;
      }
    </style>
  </defs>
  <g id="Camada_1-2" data-name="Camada 1">
    <g>
      <path class="cls-1" d="M34.39,10.2c-1.12.49-2.12.92-3.44,1.29-.7.2-.94,1.04-.52,1.63.94,1.31,1.36,3.02.92,4.84-.52,2.16-2.29,3.88-4.46,4.34-3.83.8-7.2-2.09-7.2-5.78v-.68c0-.56.17-1.09.46-1.55,1.64-.82,2.78-2.5,2.78-4.46,0-1.67-.83-3.14-2.09-4.05-.21-1.66-1.11-3.68-1.86-5.13-.44-.86-1.67-.86-2.11,0-.74,1.45-1.65,3.47-1.86,5.13-1.26.91-2.09,2.38-2.09,4.05,0,1.87,1.04,3.48,2.56,4.34.2.28.38.59.46.93.24.93.25,1.94-.03,3-.57,2.11-2.33,3.78-4.47,4.21-3.81.77-7.15-2.12-7.15-5.79,0-1.38.47-2.64,1.26-3.64.45-.58.14-1.44-.57-1.63-1.26-.34-2.46-.72-3.59-1.15-.76-.29-1.54.37-1.39,1.17l2.95,16.21c.09.5.53.87,1.04.87h9.39c.1-.31.25-.61.44-.89l1.4-1.99c.62-.87,1.63-1.4,2.7-1.4s2.08.52,2.7,1.4l1.4,1.99c.2.28.34.58.44.89h9.4c.51,0,.95-.36,1.04-.87l2.93-16.13c.15-.83-.69-1.49-1.46-1.15ZM17.94,11.82c-1.1,0-2-.9-2-2s.9-2,2-2,2,.9,2,2-.9,2-2,2Z"/>
      <path class="cls-2" d="M17.28,31.82c.16.23.41.34.66.34s.5-.11.66-.34l1.4-1.99c.2-.28.2-.65,0-.93l-1.4-1.99c-.16-.23-.41-.34-.66-.34s-.5.11-.66.34l-1.4,1.99c-.2.28-.2.65,0,.93l1.4,1.99ZM31.76,30.85h-9.47c-.07.15-.16.29-.25.43l-1.4,1.99c-.62.87-1.63,1.4-2.7,1.4s-2.08-.52-2.7-1.4l-1.4-1.99c-.1-.14-.18-.28-.25-.43H4.12c-.55,0-1,.45-1,1v3.78c0,.55.45,1,1,1h27.64c.55,0,1-.45,1-1v-3.78c0-.55-.45-1-1-1Z"/>
    </g>
  </g>
</svg>