<?xml version="1.0" encoding="UTF-8"?>
<svg id="Camada_2" data-name="Camada 2" xmlns="http://www.w3.org/2000/svg" viewBox="0 0 54.35 56.41">
  <defs>
    <style>
      .cls-1 {
        fill: #004fff;
      }

      .cls-1, .cls-2 {
        stroke-width: 0px;
      }

      .cls-2 {
        fill: #ff0049;
      }
    </style>
  </defs>
  <g id="Camada_1-2" data-name="Camada 1">
    <path class="cls-1" d="M22.74,0c3.58,0,6.81,1.45,9.16,3.79s3.79,5.58,3.79,9.16-1.45,6.81-3.79,9.16c-2.34,2.34-5.58,3.79-9.16,3.79s-6.81-1.45-9.16-3.79c-2.34-2.34-3.79-5.58-3.79-9.16s1.45-6.81,3.79-9.16c2.34-2.34,5.58-3.79,9.16-3.79Z"/>
    <path class="cls-2" d="M.86,49.02c-.49-.02-.88-.43-.86-.92.12-3.54,0-7.58.98-10.96,1.83-6.36,8.56-8.65,14.27-10.47.27-.1.58-.07.84.11,3.86,2.75,9.43,2.75,13.3,0,.25-.18.57-.21.84-.11,5.32,1.7,11.53,3.8,13.83,9.23l-2.14,2.23h0s-8.96,9.33-8.96,9.33l-1.01,1.83c-10.42.13-21.25.04-31.07-.29Z"/>
    <path class="cls-1" d="M48.95,33.55l5.12,4.82c.36.34.37.89.03,1.24l-4.25,4.34-6.41-6.04,4.25-4.34c.34-.35.91-.36,1.26-.03h0ZM49.23,44.58l-6.41-6.04-8.75,8.93,6.41,6.04,8.75-8.93h0ZM39.79,54.08s-.04.01-.07.02l-7.47,2.27c-.47.14-.97-.12-1.12-.58-.06-.2-.05-.4.03-.58l2.35-7.03,6.27,5.9Z"/>
  </g>
</svg>