<?xml version="1.0" encoding="UTF-8"?>
<svg id="Camada_2" data-name="Camada 2" xmlns="http://www.w3.org/2000/svg" viewBox="0 0 52.52 52.52">
  <defs>
    <style>
      .cls-1 {
        fill: #004fff;
      }

      .cls-1, .cls-2 {
        stroke-width: 0px;
      }

      .cls-2 {
        fill: #ff0049;
      }
    </style>
  </defs>
  <g id="Camada_1-2" data-name="Camada 1">
    <g>
      <path class="cls-2" d="M51.08,44.12l-12.05-12.05c-1.8,2.79-4.17,5.17-6.96,6.96l12.05,12.05c1.92,1.92,5.04,1.92,6.96,0,1.92-1.92,1.92-5.04,0-6.96Z"/>
      <path class="cls-1" d="M39.39,19.69C39.39,8.82,30.57,0,19.69,0S0,8.82,0,19.69s8.82,19.69,19.69,19.69,19.69-8.82,19.69-19.69ZM19.69,34.47c-8.15,0-14.77-6.63-14.77-14.77s6.63-14.77,14.77-14.77,14.77,6.63,14.77,14.77-6.63,14.77-14.77,14.77Z"/>
      <path class="cls-2" d="M8.21,19.69h3.28c0-4.52,3.68-8.21,8.21-8.21v-3.28c-6.33,0-11.49,5.15-11.49,11.49Z"/>
    </g>
  </g>
</svg>