<?xml version="1.0" encoding="UTF-8"?>
<svg id="Camada_2" data-name="Camada 2" xmlns="http://www.w3.org/2000/svg" viewBox="0 0 37 37">
  <defs>
    <style>
      .cls-1 {
        fill: #004fff;
        stroke-width: 0px;
      }
    </style>
  </defs>
  <g id="Camada_1-2" data-name="Camada 1">
    <path class="cls-1" d="M18.5,0C8.28,0,0,8.28,0,18.5c0,10.22,8.28,18.5,18.5,18.5s18.5-8.28,18.5-18.5C37,8.28,28.72,0,18.5,0ZM26.92,17.6l-11.53,11.87c-.48.5-1.31,0-1.09-.66l2.42-7.25c.14-.42-.17-.86-.62-.86h-5.54c-.47,0-.78-.47-.6-.9l4.98-12.06c.1-.24.34-.4.6-.4h7.54c.51,0,.82.55.56.99l-4.22,7.19c-.26.44.06.98.56.98h6.47c.58,0,.87.7.47,1.11Z"/>
  </g>
</svg>