<?xml version="1.0" encoding="UTF-8"?>
<svg id="Camada_2" data-name="Camada 2" xmlns="http://www.w3.org/2000/svg" viewBox="0 0 56.49 80.12">
  <defs>
    <style>
      .cls-1 {
        fill: #004fff;
      }

      .cls-1, .cls-2 {
        stroke-width: 0px;
      }

      .cls-2 {
        fill: #ff0049;
      }
    </style>
  </defs>
  <g id="Camada_1-2" data-name="Camada 1">
    <g>
      <path class="cls-1" d="M50.9,18.86c-1.34-3.22-.25-8.16-2.68-10.59-2.43-2.43-7.36-1.35-10.59-2.68-3.11-1.29-5.81-5.59-9.38-5.59s-6.27,4.3-9.38,5.59c-3.22,1.34-8.16.25-10.59,2.68-2.43,2.43-1.35,7.36-2.68,10.59-1.29,3.11-5.59,5.81-5.59,9.38,0,3.58,4.3,6.27,5.59,9.38,1.34,3.22.25,8.16,2.68,10.59s7.36,1.35,10.59,2.68c3.11,1.29,5.81,5.59,9.38,5.59s6.27-4.3,9.38-5.59c3.22-1.34,8.16-.25,10.59-2.68,2.43-2.43,1.35-7.36,2.68-10.59,1.29-3.11,5.59-5.81,5.59-9.38s-4.3-6.27-5.59-9.38ZM28.25,44.13c-8.77,0-15.89-7.11-15.89-15.89,0-8.77,7.11-15.89,15.89-15.89s15.89,7.11,15.89,15.89c0,8.77-7.11,15.89-15.89,15.89Z"/>
      <path class="cls-2" d="M22.8,30.87l-.79,4.61c-.27,1.59.66,2.28,2.1,1.52l4.14-2.18,4.14,2.18c1.43.75,2.37.07,2.1-1.52l-.79-4.61,3.35-3.26c1.16-1.13.8-2.23-.8-2.46l-4.63-.67-2.07-4.19c-.72-1.45-1.87-1.45-2.59,0l-2.07,4.19-4.63.67c-1.6.23-1.96,1.34-.8,2.46l3.35,3.26ZM46.82,77.31l-3.22-22.7c-.36.04-.7.07-1.04.1-1.16.1-2.49.22-3.14.49-.57.24-1.54,1.05-2.39,1.78-2.08,1.76-4.93,4.17-8.78,4.17s-6.7-2.41-8.78-4.17c-.85-.72-1.82-1.54-2.39-1.77-.66-.27-1.98-.39-3.14-.49-.23-.02-.47-.04-.71-.07l-3.5,23.2c-.24,1.59,1.43,2.79,2.86,2.05l14.96-7.72c.56-.29,1.21-.29,1.77-.02l14.68,7.2c1.42.7,3.05-.48,2.82-2.05Z"/>
    </g>
  </g>
</svg>