<?xml version="1.0" encoding="UTF-8"?>
<svg id="Camada_2" data-name="Camada 2" xmlns="http://www.w3.org/2000/svg" viewBox="0 0 60.32 83.49">
  <defs>
    <style>
      .cls-1 {
        fill: #004fff;
      }

      .cls-1, .cls-2 {
        stroke-width: 0px;
      }

      .cls-2 {
        fill: #ff0049;
      }
    </style>
  </defs>
  <g id="Camada_1-2" data-name="Camada 1">
    <g>
      <path class="cls-1" d="M29.59,0C12.99.31,0,14.55,0,31.16v36.6c0,4.76,6.61,5.97,8.29,1.52,1.67-4.42,3.52-8.33,6.8-8.33,7.54,0,7.54,10.63,15.09,10.63s7.54-10.63,15.08-10.63c3.27,0,5.12,3.89,6.78,8.3,1.68,4.45,8.29,3.23,8.29-1.52V30.16C60.32,13.31,46.51-.3,29.59,0ZM24.4,33.92c0,2.57-2.1,4.67-4.67,4.67s-4.67-2.1-4.67-4.67v-5.68c0-2.57,2.1-4.67,4.67-4.67s4.67,2.1,4.67,4.67v5.68ZM45.25,33.92c0,2.57-2.1,4.67-4.67,4.67s-4.67-2.1-4.67-4.67v-5.68c0-2.57,2.1-4.67,4.67-4.67s4.67,2.1,4.67,4.67v5.68Z"/>
      <path class="cls-2" d="M45.25,77.16H15.07c-1.75,0-3.16,1.42-3.16,3.16s1.42,3.16,3.16,3.16h30.18c1.75,0,3.16-1.42,3.16-3.16s-1.42-3.16-3.16-3.16Z"/>
    </g>
  </g>
</svg>