<?xml version="1.0" encoding="UTF-8"?>
<svg id="Camada_2" data-name="Camada 2" xmlns="http://www.w3.org/2000/svg" viewBox="0 0 64.55 64.55">
  <defs>
    <style>
      .cls-1 {
        fill: #004fff;
      }

      .cls-1, .cls-2 {
        stroke-width: 0px;
      }

      .cls-2 {
        fill: #ff0049;
      }
    </style>
  </defs>
  <g id="Camada_1-2" data-name="Camada 1">
    <g>
      <path class="cls-1" d="M61.45.04l-8.04,1.3c-8.02,1.11-15.05,4.73-20.17,10.39l-9.01,9.87-12.27-.72c-.66-.04-1.29.27-1.65.82l-6.17,9.22c-.64.95-.27,2.25.77,2.72l8.71,3.96,13.32,13.32,3.96,8.72c.47,1.04,1.76,1.41,2.72.78l9.36-6.21c.56-.37.87-1.01.83-1.67l-.82-12.27,9.83-8.97c5.66-5.12,9.28-12.16,10.39-20.17l1.3-8.04c.29-1.8-1.26-3.35-3.06-3.06ZM46.65,25.78c-2.18,2.18-5.7,2.18-7.88,0-2.18-2.18-2.18-5.7,0-7.88,2.18-2.18,5.7-2.18,7.88,0,2.18,2.18,2.18,5.7,0,7.88Z"/>
      <path class="cls-2" d="M22.25,52.59l-10.28-10.28c-.28-.28-.74-.29-1.03-.01-.56.54-1.33,1.3-1.6,1.57C.26,52.95,0,64.55,0,64.55c0,0,11.61-.26,20.69-9.34.27-.27,1.03-1.04,1.57-1.6.28-.29.27-.74-.01-1.03Z"/>
    </g>
  </g>
</svg>