<?xml version="1.0" encoding="UTF-8"?>
<svg id="Camada_2" data-name="Camada 2" xmlns="http://www.w3.org/2000/svg" viewBox="0 0 36.6 39.33">
  <defs>
    <style>
      .cls-1 {
        fill: #004fff;
      }

      .cls-1, .cls-2 {
        stroke-width: 0px;
      }

      .cls-2 {
        fill: #ff0049;
      }
    </style>
  </defs>
  <g id="Camada_1-2" data-name="Camada 1">
    <g>
      <path class="cls-2" d="M17.61,5.01c-.63-.59-1.63.05-1.36.87.37,1.13.82,2.51,1.34,4.06C12.58,6.06,6.92,2.77,1.19.08.39-.29-.37.68.19,1.37c3.33,4.06,6.45,8.31,9.52,12.56-2.4-1.24-4.61-2.3-6.24-3.07-.78-.37-1.53.55-1.02,1.25,2.42,3.31,6.8,9.24,10.78,14.31,1.11-6.07,6.43-10.69,12.82-10.69.74,0,1.46.08,2.16.19-3.7-4.29-8.01-8.49-10.61-10.92Z"/>
      <path class="cls-1" d="M31.38,15.33c.83,0,1.5-.67,1.5-1.5s-.67-1.5-1.5-1.5-1.5.67-1.5,1.5.67,1.5,1.5,1.5ZM24.33,5.29c1.21.48,1.78,1.06,2.26,2.26.14.34.63.34.77,0,.48-1.21,1.06-1.78,2.26-2.26.34-.14.34-.63,0-.77-1.21-.48-1.78-1.06-2.26-2.26-.14-.34-.63-.34-.77,0-.48,1.21-1.06,1.78-2.26,2.26-.34.14-.34.63,0,.77ZM26.05,18.23c-5.82,0-10.55,4.72-10.55,10.55s4.72,10.55,10.55,10.55,10.55-4.72,10.55-10.55-4.72-10.55-10.55-10.55ZM21.94,35.39c-1.08-.38-1.98-1.62-2.01-2.77-.03-1.14.82-1.76,1.89-1.38,1.08.38,1.98,1.62,2.01,2.77.03,1.14-.82,1.76-1.89,1.38ZM28.49,22.7c-.25-.69.14-1.23.88-1.2.74.03,1.54.62,1.8,1.32s-.14,1.23-.88,1.2-1.54-.62-1.8-1.32ZM31.23,31.05c-.89-.93-1.13-2.61-.53-3.75.6-1.14,1.82-1.31,2.71-.38.89.93,1.13,2.61.53,3.75-.6,1.14-1.82,1.31-2.71.38ZM2.88,23.33c-1.1,0-2,.9-2,2s.9,2,2,2,2-.9,2-2-.9-2-2-2ZM9.38,29.33c-.83,0-1.5.67-1.5,1.5s.67,1.5,1.5,1.5,1.5-.67,1.5-1.5-.67-1.5-1.5-1.5Z"/>
    </g>
  </g>
</svg>