<?xml version="1.0" encoding="UTF-8"?>
<svg id="Camada_2" data-name="Camada 2" xmlns="http://www.w3.org/2000/svg" viewBox="0 0 73.04 69.54">
  <defs>
    <style>
      .cls-1 {
        fill: #004fff;
      }

      .cls-1, .cls-2 {
        stroke-width: 0px;
      }

      .cls-2 {
        fill: #ff0049;
      }
    </style>
  </defs>
  <g id="Camada_1-2" data-name="Camada 1">
    <g>
      <path class="cls-2" d="M13.05,14.11c-3.73-1.22-4.93-2.42-6.15-6.15-.09-.27-.46-.27-.55,0-1.22,3.73-2.42,4.93-6.15,6.15-.27.09-.27.46,0,.55,3.73,1.22,4.93,2.42,6.15,6.15.09.27.46.27.55,0,1.22-3.73,2.42-4.93,6.15-6.15.27-.09.27-.46,0-.55ZM72.23,9.19c-4.58-1.76-6.62-3.8-8.38-8.38-.42-1.09-1.94-1.09-2.35,0-1.76,4.58-3.8,6.62-8.38,8.38-1.09.42-1.09,1.94,0,2.35,4.58,1.76,6.62,3.8,8.38,8.38.42,1.09,1.94,1.09,2.35,0,1.76-4.58,3.8-6.62,8.38-8.38,1.09-.42,1.09-1.94,0-2.35Z"/>
      <path class="cls-1" d="M64.88,36.34c-.09-12.08-13.9-21.9-30.88-21.9S3.21,24.26,3.13,36.34h0v11.99h.06c.21,4.12,2.04,7.94,5.01,11.19v-7.5c0-1.27,1.03-2.3,2.3-2.3s2.3,1.03,2.3,2.3v11.47c1.67,1.13,3.54,2.12,5.53,2.96v-6.14c0-1.27,1.03-2.3,2.3-2.3s2.3,1.03,2.3,2.3v7.74c2.05.57,4.22.97,6.45,1.21v-3.42c0-1.27,1.03-2.3,2.3-2.3s2.3,1.03,2.3,2.3v3.69c16.65,0,30.23-9.44,30.83-21.21h.06v-11.99h0ZM34,52.94c-13.98,0-25.35-7.39-25.35-16.48s11.37-16.48,25.35-16.48,25.35,7.39,25.35,16.48-11.37,16.48-25.35,16.48ZM34,23.88c-10.15,0-18.39,5.63-18.39,12.58s8.23,12.58,18.39,12.58,18.39-5.63,18.39-12.58-8.23-12.58-18.39-12.58ZM34,39.34c1.51,0,2.97-.4,4-1.09,1.06-.71,2.49-.42,3.2.63.71,1.06.43,2.49-.63,3.2-1.8,1.21-4.14,1.87-6.57,1.87-5.54,0-9.88-3.29-9.88-7.49s4.34-7.49,9.88-7.49c2.43,0,4.77.66,6.57,1.87,1.06.71,1.34,2.14.63,3.2-.71,1.06-2.14,1.34-3.2.63-1.04-.69-2.49-1.09-4-1.09-3.01,0-5.27,1.52-5.27,2.88s2.25,2.88,5.27,2.88Z"/>
    </g>
  </g>
</svg>