<?xml version="1.0" encoding="UTF-8"?>
<svg id="Camada_2" data-name="Camada 2" xmlns="http://www.w3.org/2000/svg" viewBox="0 0 61.54 70.23">
  <defs>
    <style>
      .cls-1 {
        fill: #004fff;
      }

      .cls-1, .cls-2 {
        stroke-width: 0px;
      }

      .cls-2 {
        fill: #ff0049;
      }
    </style>
  </defs>
  <g id="Camada_1-2" data-name="Camada 1">
    <g>
      <path class="cls-2" d="M36.95,15.69l-3.58-.52-1.6-3.24c-.55-1.12-1.45-1.12-2,0l-1.6,3.24-3.58.52c-1.24.18-1.51,1.03-.62,1.91l2.59,2.52-.61,3.57c-.21,1.23.51,1.76,1.62,1.18l3.2-1.68,3.2,1.68c1.11.58,1.83.05,1.62-1.18l-.61-3.57,2.59-2.52c.9-.87.62-1.73-.62-1.91Z"/>
      <path class="cls-1" d="M59.71,5.22h-10.72V0H12.55v5.22H1.83c-1.01,0-1.83.82-1.83,1.83v9.82c0,5.62,4.56,10.18,10.18,10.18h3.68c1.44,3.28,3.9,6.28,6.59,8.47l.8.65c2.42,1.96,3.83,4.92,3.83,8.04v4.23h11.36v-4.83c0-2.74,1.24-5.34,3.37-7.06l1.27-1.03c2.69-2.19,5.15-5.18,6.59-8.47h3.68c5.62,0,10.18-4.56,10.18-10.18V7.06c0-1.01-.82-1.83-1.83-1.83ZM10.18,22.33c-3.01,0-5.45-2.44-5.45-5.45v-6.92h7.81v11.3c0,.36.06.72.09,1.07h-2.45ZM37,27.96c-10.95,5.91-22-5.14-16.1-16.09.83-1.54,2.11-2.82,3.65-3.64,10.95-5.9,21.99,5.14,16.09,16.09-.83,1.54-2.11,2.82-3.64,3.65ZM56.81,16.88c0,3.01-2.44,5.45-5.45,5.45h-2.45c.03-.36.09-.72.09-1.07v-11.3h7.81v6.92ZM49.7,64.54h-3.79v-6.09c0-2.91-2.36-5.27-5.27-5.27h-19.76c-2.91,0-5.27,2.36-5.27,5.27v6.09h-3.79v5.68h37.87v-5.68ZM39.19,58.86v3.79h-16.83v-3.79h16.83Z"/>
    </g>
  </g>
</svg>