<?xml version="1.0" encoding="UTF-8"?>
<svg id="Camada_2" data-name="Camada 2" xmlns="http://www.w3.org/2000/svg" viewBox="0 0 653 272.73">
  <defs>
    <style>
      .cls-1 {
        fill: #edff00;
      }

      .cls-1, .cls-2 {
        stroke-width: 0px;
      }

      .cls-2 {
        fill: #ff0049;
      }
    </style>
  </defs>
  <g id="Camada_1-2" data-name="Camada 1">
    <g>
      <path class="cls-2" d="M653,270.62c-.28,0-.58-.01-.88-.03-8.16-.26-16.31-.19-24.47-.06-1.25.01-2.36.15-2.4-1.81-.09-5.18-.43-10.36-.65-15.53-.59-13.89-1.19-27.79-1.77-41.69-.9-22.04-1.79-44.08-2.71-66.11-.56-13.49-1.16-26.97-1.72-40.47-.71-17.07-1.39-34.14-2.12-51.21l6.48-5.59,21.56,19.95c.04,1.06.09,2.13.13,3.19.96,22.62,1.95,45.23,2.89,67.85.56,13.07,1.02,26.15,1.58,39.23,1.02,24.02,2.08,48.03,3.11,72.04.12,2.72.13,5.44.27,8.15.03.75-.45,1.67.5,2.22.06,3.29.13,6.59.18,9.88Z"/>
      <path class="cls-2" d="M653,270.62c-.28,0-.58-.01-.88-.03-8.16-.26-16.31-.19-24.47-.06-1.25.01-2.36.15-2.4-1.81-.09-5.18-.43-10.36-.65-15.53-.59-13.89-1.19-27.79-1.77-41.69-.9-22.04-1.79-44.08-2.71-66.11-.56-13.49-1.16-26.97-1.72-40.47-.71-17.07-1.39-34.14-2.12-51.21l6.48-5.59,21.56,19.95c.04,1.06.09,2.13.13,3.19.96,22.62,1.95,45.23,2.89,67.85.56,13.07,1.02,26.15,1.58,39.23,1.02,24.02,2.08,48.03,3.11,72.04.12,2.72.13,5.44.27,8.15.03.75-.45,1.67.5,2.22.06,3.29.13,6.59.18,9.88Z"/>
      <path class="cls-2" d="M545.38,270.64c-8.16-.16-16.32-.14-24.48-.05-1.77.02-2.41-.49-2.7-2.25-3.61-21.91-7.3-43.8-10.96-65.69-2.8-16.7-5.6-33.41-8.4-50.11-.11-.65-.23-1.28-.81-1.8.49,12.13.95,24.14,1.48,36.15.58,13.41,1.25,26.81,1.84,40.22.61,13.66,1.14,27.31,1.8,40.97.09,1.82-.27,2.47-2.19,2.44-7.09-.08-14.18-.07-21.27.03-1.77.02-2.04-.85-2.09-2.26-.28-7.74-.6-15.47-.92-23.21-.91-22.3-1.81-44.59-2.73-66.89-.57-13.74-1.18-27.48-1.74-41.22-.92-22.46-1.82-44.93-2.74-67.39-.58-14.24-1.17-28.47-1.78-42.7-.07-1.64-.28-3.28-.43-4.91.8-1.03,1.93-.56,2.89-.56,7.9-.03,15.8.07,23.7-.02,1.86-.02,2.62.48,2.88,2.36.66,4.64,1.52,9.24,2.3,13.85.27,1.78.52,3.57.82,5.35,2.73,16.54,5.49,33.06,8.2,49.6,3.26,19.86,6.44,39.74,9.74,59.59.47,2.87.54,5.85,1.15,7.29-.14-7.52-.16-16.32-.49-25.1-.82-22.2-1.78-44.4-2.69-66.6-.63-15.29-1.27-30.58-1.91-45.88.8-.62,1.74-.39,2.62-.39,6.58-.02,13.17.07,19.76-.03,1.86-.03,2.23.87,2.28,2.38.13,4.36.3,8.72.45,13.08.76,18.42,1.54,36.84,2.27,55.27.51,12.67.94,25.35,1.43,38.02.92,23.7,1.86,47.4,2.8,71.09.59,14.65,1.2,29.29,1.79,43.94.31,7.49.55,14.98.95,22.46.12,2.19-.41,3.02-2.8,2.98Z"/>
      <path class="cls-2" d="M545.38,270.64c-8.16-.16-16.32-.14-24.48-.05-1.77.02-2.41-.49-2.7-2.25-3.61-21.91-7.3-43.8-10.96-65.69-2.8-16.7-5.6-33.41-8.4-50.11-.11-.65-.23-1.28-.81-1.8.49,12.13.95,24.14,1.48,36.15.58,13.41,1.25,26.81,1.84,40.22.61,13.66,1.14,27.31,1.8,40.97.09,1.82-.27,2.47-2.19,2.44-7.09-.08-14.18-.07-21.27.03-1.77.02-2.04-.85-2.09-2.26-.28-7.74-.6-15.47-.92-23.21-.91-22.3-1.81-44.59-2.73-66.89-.57-13.74-1.18-27.48-1.74-41.22-.92-22.46-1.82-44.93-2.74-67.39-.58-14.24-1.17-28.47-1.78-42.7-.07-1.64-.28-3.28-.43-4.91.8-1.03,1.93-.56,2.89-.56,7.9-.03,15.8.07,23.7-.02,1.86-.02,2.62.48,2.88,2.36.66,4.64,1.52,9.24,2.3,13.85.27,1.78.52,3.57.82,5.35,2.73,16.54,5.49,33.06,8.2,49.6,3.26,19.86,6.44,39.74,9.74,59.59.47,2.87.54,5.85,1.15,7.29-.14-7.52-.16-16.32-.49-25.1-.82-22.2-1.78-44.4-2.69-66.6-.63-15.29-1.27-30.58-1.91-45.88.8-.62,1.74-.39,2.62-.39,6.58-.02,13.17.07,19.76-.03,1.86-.03,2.23.87,2.28,2.38.13,4.36.3,8.72.45,13.08.76,18.42,1.54,36.84,2.27,55.27.51,12.67.94,25.35,1.43,38.02.92,23.7,1.86,47.4,2.8,71.09.59,14.65,1.2,29.29,1.79,43.94.31,7.49.55,14.98.95,22.46.12,2.19-.41,3.02-2.8,2.98Z"/>
      <path class="cls-2" d="M142.89,195.94c-.62-15.47-1.25-30.92-1.89-46.39-.59-14.96-1.21-29.94-1.81-44.91-.63-15.87-1.28-31.75-1.87-47.63-.22-6.09-.67-12.15-2.48-18.04-1.36-3.63-2.94-7.14-5.46-10.15-7.19-8.61-16.84-10.52-27.37-9.93-9.44.53-16.99,4.45-22.11,12.6-.03.25.03.53-.08.74-3.76,7.94-4.76,16.4-4.44,25.04.74,19.91,1.58,39.82,2.39,59.72.61,15.13,1.23,30.27,1.82,45.41.77,19.82,1.45,39.65,2.31,59.47.39,8.78.17,17.62,1.96,26.3,1.59,7.7,4.52,14.78,11.38,19.26,9.31,6.07,19.54,6.43,29.96,3.56,11.01-3.05,19.59-11.09,19.47-24.96-.14-16.72-1.11-33.4-1.78-50.1ZM118.9,242.89c-.22,2-.87,3.73-3.22,4.08-2,.3-3.56-.05-4.62-1.08-.17-.15-.32-.34-.46-.52-.28-.39-.52-.84-.7-1.36-1.42-3.96-1.03-8.13-1.2-12.23-.74-18.09-1.38-36.18-2.09-54.28-.59-14.96-1.21-29.93-1.82-44.89-.62-15.38-1.21-30.76-1.85-46.13-.46-11.27-.99-22.53-1.46-33.79-.05-1.15.03-2.31.18-3.45.44-3.07,1.45-4.07,4.14-4.25,2.87-.19,4.61.89,5.15,3.81.98,5.19.79,10.48,1.11,15.74.05.8.05,1.6.06,2.4v.8h.05c.7,18.35,1.38,36.68,2.1,55.03.89,22.7,1.82,45.39,2.74,68.08.61,15.06,1.19,30.1,1.85,45.14.1,2.31.28,4.61.03,6.89Z"/>
      <path class="cls-2" d="M142.89,195.94c-.62-15.47-1.25-30.92-1.89-46.39-.59-14.96-1.21-29.94-1.81-44.91-.63-15.87-1.28-31.75-1.87-47.63-.22-6.09-.67-12.15-2.48-18.04-1.36-3.63-2.94-7.14-5.46-10.15-7.19-8.61-16.84-10.52-27.37-9.93-9.44.53-16.99,4.45-22.11,12.6-.03.25.03.53-.08.74-3.76,7.94-4.76,16.4-4.44,25.04.74,19.91,1.58,39.82,2.39,59.72.61,15.13,1.23,30.27,1.82,45.41.77,19.82,1.45,39.65,2.31,59.47.39,8.78.17,17.62,1.96,26.3,1.59,7.7,4.52,14.78,11.38,19.26,9.31,6.07,19.54,6.43,29.96,3.56,11.01-3.05,19.59-11.09,19.47-24.96-.14-16.72-1.11-33.4-1.78-50.1ZM118.9,242.89c-.22,2-.87,3.73-3.22,4.08-2,.3-3.56-.05-4.62-1.08-.17-.15-.32-.34-.46-.52-.28-.39-.52-.84-.7-1.36-1.42-3.96-1.03-8.13-1.2-12.23-.74-18.09-1.38-36.18-2.09-54.28-.59-14.96-1.21-29.93-1.82-44.89-.62-15.38-1.21-30.76-1.85-46.13-.46-11.27-.99-22.53-1.46-33.79-.05-1.15.03-2.31.18-3.45.44-3.07,1.45-4.07,4.14-4.25,2.87-.19,4.61.89,5.15,3.81.98,5.19.79,10.48,1.11,15.74.05.8.05,1.6.06,2.4,0,.27.01.54.01.8h.04c.7,18.35,1.38,36.68,2.1,55.03.89,22.7,1.82,45.39,2.74,68.08.61,15.06,1.19,30.1,1.85,45.14.1,2.31.28,4.61.03,6.89Z"/>
      <path class="cls-2" d="M461.49,242.14c-.82-21.71-1.76-43.42-2.66-65.13-.6-14.48-1.2-28.95-1.79-43.42-.92-22.54-1.81-45.07-2.75-67.61-.38-9.11-.1-18.29-2.85-27.15-2.07-5.66-4.98-10.75-9.98-14.35-13.66-9.83-33.44-7.04-44.02,5.93-.31.37-.6.74-.89,1.13-.03.26.08.65-.33.52h0s-.08-.07-.14-.1c-.01,0-.03-.02-.04-.03l.03.08c.05.03.07.02.11.03.16.12.2.27.19.42l-.41.65-.16.8h0c-.02.05-.04.11-.06.16-.11.26-.22.52-.32.77-.04.1-.08.19-.11.29-.04.1-.08.19-.11.29-.06.16-.12.33-.18.49-.06.16-.12.32-.17.48-.1.26-.19.53-.27.79-.07.21-.14.42-.2.63-.05.16-.1.31-.14.47-.1.33-.2.66-.29,1-.09.32-.17.63-.25.96-.05.22-.11.45-.16.67-.03.12-.06.24-.08.36-.04.16-.08.33-.11.49-.13.57-.24,1.15-.34,1.72-.04.22-.08.44-.11.66-.07.42-.14.84-.19,1.26-.03.24-.06.48-.09.72-.02.14-.04.27-.05.41-.15,1.23-.25,2.46-.33,3.7,0,.08,0,.16-.01.24-.03.51-.05,1.02-.07,1.54,0,.22-.01.44-.02.66,0,.22-.01.45-.01.67,0,.2,0,.4,0,.6-.02,1.54.01,3.08.08,4.63.8,20.15,1.64,40.29,2.46,60.45.6,14.64,1.21,29.27,1.8,43.92.76,19.17,1.39,38.34,2.28,57.49.42,9.11.15,18.3,1.98,27.3,2.03,9.98,6.4,18.43,16.58,22.34,7.6,2.92,15.5,3.1,23.35,1.21,7.28-1.75,13.46-5.38,17.5-11.93,3.25-5.28,3.6-11.24,3.37-17.2ZM435.74,242.43c-.24,2.17-.94,4.06-3.47,4.46-2.71.42-4.74-.74-5.67-3.28-.89-2.44-.84-5.03-.94-7.57-.76-18.92-1.45-37.84-2.19-56.75-.58-14.56-1.2-29.11-1.79-43.67-.6-14.64-1.2-29.28-1.8-43.92-.55-13.32-1.12-26.64-1.63-39.97-.18-4.66,1.06-6.53,4.24-6.79,3.35-.28,5.09,1.52,5.57,6.05.22,2.04.11,4.11.14,6.17.08,0,.15,0,.23,0,.62,16.04,1.23,32.08,1.87,48.11.58,14.56,1.19,29.11,1.79,43.67.6,14.56,1.18,29.11,1.8,43.67.66,15.37,1.37,30.75,2.04,46.12.05,1.23-.05,2.47-.19,3.7Z"/>
      <path class="cls-2" d="M461.49,242.14c-.82-21.71-1.76-43.42-2.66-65.13-.6-14.48-1.2-28.95-1.79-43.42-.92-22.54-1.81-45.07-2.75-67.61-.38-9.11-.1-18.29-2.85-27.15-2.07-5.66-4.98-10.75-9.98-14.35-13.66-9.83-33.44-7.04-44.02,5.93-.31.37-.6.74-.89,1.13-.03.26.08.65-.33.52h0s-.03-.01-.04-.02c.16.12.2.27.19.42,0,.08-.02.16-.04.24-.03.09-.07.18-.11.26-.14.31-.28.63-.41.94h0c-.02.05-.04.11-.06.16-.11.26-.22.52-.32.77-.04.1-.08.19-.11.29-.04.1-.08.19-.11.29-.06.16-.12.33-.18.49-.06.16-.12.32-.17.48-.1.26-.19.53-.27.79-.07.21-.14.42-.2.63-.05.16-.1.31-.14.47-.1.33-.2.66-.29,1-.09.32-.17.63-.25.96-.06.22-.11.45-.16.67-.03.12-.06.24-.08.36-.04.16-.08.33-.11.49-.13.57-.24,1.15-.34,1.72-.04.22-.08.44-.11.66-.07.42-.14.84-.19,1.26-.03.24-.06.48-.09.72-.02.14-.04.27-.05.41-.15,1.23-.25,2.46-.33,3.7,0,.08,0,.16-.01.24-.03.51-.05,1.02-.07,1.54,0,.22-.01.44-.02.66,0,.22-.01.45-.01.67,0,.2,0,.4,0,.6-.02,1.54.01,3.08.08,4.63.8,20.15,1.64,40.29,2.46,60.45.6,14.64,1.21,29.27,1.8,43.92.76,19.17,1.39,38.34,2.28,57.49.42,9.11.15,18.3,1.98,27.3,2.03,9.98,6.4,18.43,16.58,22.34,7.6,2.92,15.5,3.1,23.35,1.21,7.28-1.75,13.46-5.38,17.5-11.93,3.25-5.28,3.6-11.24,3.37-17.2ZM435.74,242.43c-.24,2.17-.94,4.06-3.47,4.46-2.71.42-4.74-.74-5.67-3.28-.89-2.44-.84-5.03-.94-7.57-.76-18.92-1.45-37.84-2.19-56.75-.58-14.56-1.2-29.11-1.79-43.67-.6-14.64-1.2-29.28-1.8-43.92-.55-13.32-1.12-26.64-1.63-39.97-.18-4.66,1.06-6.53,4.24-6.79,3.35-.28,5.09,1.52,5.57,6.05.22,2.04.11,4.11.14,6.17.08,0,.15,0,.23,0,.62,16.04,1.23,32.08,1.87,48.11.58,14.56,1.19,29.11,1.79,43.67.6,14.56,1.18,29.11,1.8,43.67.66,15.37,1.37,30.75,2.04,46.12.05,1.23-.05,2.47-.19,3.7Z"/>
      <path class="cls-2" d="M395.74,34.07c.02-.05.04-.1.06-.15l-.03.15h-.03Z"/>
      <path class="cls-2" d="M397.59,30.54l-1.2,1.9h0s-.02.03-.02.03c0-.15-.04-.3-.19-.42-.04-.01-.06,0-.11-.03l-.03-.08s.03.02.04.03c.05.03.1.06.14.09h0c.41.13.3-.26.33-.52.29-.38.58-.76.89-1.13l.14.13Z"/>
      <path class="cls-2" d="M396.18,32.04s-.06,0-.11-.03l-.03-.08s.03.02.04.03c.04.03.06.05.09.08Z"/>
      <path class="cls-2" d="M63.25,261.77c-4.53,6.24-10.97,9.32-18.42,10.38-8.74,1.24-17.18.25-24.77-4.53-8.27-5.21-11.94-13.2-12.39-22.69-.65-13.57-1.02-27.16-1.56-40.73-.91-23.21-1.84-46.41-2.77-69.61-.6-15.06-1.21-30.12-1.82-45.17-.49-12.26-1.02-24.52-1.48-36.78-.25-6.65.61-13.14,3.17-19.35.18-.44.2-.94.29-1.41,8.42-14.4,25.35-14.97,37.72-11.36,10.27,3,17.42,9.48,19.61,20.35.66,3.28.62,6.69.9,10.04.61,15.87,1.18,31.74,1.89,47.6.09,2.04-.49,2.55-2.4,2.52-7.25-.09-14.49-.09-21.74-.05-1.53,0-1.95-.58-1.99-2.04-.39-11.43-.83-22.86-1.29-34.29-.19-4.85-.33-9.71-.72-14.54-.3-3.73-1.61-4.94-4.74-5.09-2.57-.12-3.81.85-4.21,3.44-.65,4.2.11,8.38.25,12.56.41,13,.92,25.98,1.44,38.98.52,12.82,1.1,25.65,1.65,38.46-.02.66-.07,1.32-.04,1.97.46,11.39.92,22.79,1.4,34.18.35,8.28.73,16.55,1.1,24.83.47,12.59.93,25.18,1.42,37.77.06,1.64.21,3.29.46,4.91.45,2.99,1.84,4,5,3.78,2.52-.18,3.57-1.36,3.51-4.36-.32-16.14-1.01-32.26-1.88-48.39-.11-2.07.29-2.97,2.61-2.94,7.01.08,14.02,0,21.03-.11,1.79-.03,2.45.63,2.51,2.44.33,10.2.77,20.41,1.16,30.61.25,6.5.57,13,.71,19.5.14,6.92-1.45,13.43-5.57,19.1Z"/>
      <path class="cls-2" d="M344.48,242.84c.02,7.31-1.69,14.18-6.54,20-4.64,5.56-10.76,8.33-17.73,9.26-7.57,1.01-15,.31-21.93-3.2-9.68-4.9-14.27-13.18-14.86-23.69-.69-12.25-1-24.52-1.48-36.78-.92-23.04-1.84-46.07-2.77-69.11-.59-14.48-1.19-28.96-1.79-43.43-.58-13.9-1.22-27.8-1.73-41.71-.27-7.46.28-14.81,3.61-21.7.05-.11.12-.23.17-.35.02-.04.04-.08.05-.12.09-.25.11-.52-.19-.77-.03,0-.03,0-.05,0v-.05s0,0,.01,0c0,0,.01,0,.02,0,.15-.19.29-.37.44-.55,9.19-13.43,25.27-13.3,36.58-10.23,8.53,2.32,14.98,7.33,18.65,15.56,1.93,4.68,1.95,9.62,2.14,14.57.6,16.05,1.27,32.09,1.97,48.13.08,1.67-.23,2.33-2.11,2.3-7.08-.11-14.18-.12-21.26.02-2.01.04-2.58-.66-2.63-2.5-.26-7.98-.45-15.97-.96-23.94-.54-8.38-.24-16.8-1.23-25.15-.36-3-1.52-4.22-4.06-4.37-3.53-.2-4.98,1.21-4.93,5.11.05,4.53.25,9.05.43,13.58.26,6.5.58,13,.84,19.5.93,23.12,1.84,46.23,2.77,69.35.58,14.48,1.19,28.96,1.79,43.43.59,14.32,1.18,28.63,1.79,42.94.05,1.15.19,2.3.41,3.43.53,2.7,1.97,3.63,5.07,3.4,2.21-.17,3.46-1.42,3.38-4.01-.23-8.56-.6-17.12-.93-25.67-.31-7.82-.6-15.63-1.01-23.44-.1-1.84.43-2.44,2.3-2.42,7.08.08,14.18.08,21.26-.04,1.99-.03,2.57.69,2.63,2.54.31,9.87.71,19.75,1.09,29.62.26,6.83.75,13.66.77,20.49Z"/>
      <path class="cls-2" d="M268.48,270.72c-14.91-.08-29.83-.09-44.74-.03-1.77,0-2.04-.84-2.09-2.25-.29-7.98-.61-15.96-.93-23.94-.92-23.03-1.84-46.06-2.77-69.09-.58-14.15-1.19-28.29-1.76-42.43-.93-23.03-1.84-46.06-2.77-69.1-.56-13.82-1.15-27.63-1.73-41.45,0-.24.08-.48.13-.72,6.47-.57,12.96-.25,19.44-.34,8.81-.13,17.61.03,26.42-.07,2.36-.03,3.32.54,3.34,3.13.05,6.57.46,13.14.72,19.71.03.72.27,1.47-.19,2.16-6.17.25-12.34.37-18.52.12-1.59-.06-2.69,0-2.56,2.15.41,6.74.66,13.48.98,20.22.07,1.26.14,2.53.21,3.79.33,8.96.65,17.92.99,26.88.24,6.17.49,12.34.75,18.51.18,4.19.46,8.39.5,12.58.02,1.8.7,2.25,2.35,2.21,5.52-.12,11.05-.07,16.57-.23,1.87-.06,2.66.43,2.71,2.43.17,6.91.44,13.82.8,20.73.09,1.78-.64,2.09-2.14,2.09-5.52-.03-11.05.08-16.57,0-1.97-.03-2.72.41-2.62,2.6.76,16.36,1.39,32.73,2.07,49.1.46,11.1.99,22.2,1.38,33.31.06,1.69.7,2.06,2.22,2.04,5.6-.09,11.21-.02,16.81-.15,1.95-.04,2.54.64,2.59,2.56.19,6.99.49,13.99.87,20.97.11,1.97-.51,2.52-2.47,2.51Z"/>
      <path class="cls-2" d="M268.48,270.72c-14.91-.08-29.83-.09-44.74-.03-1.77,0-2.04-.84-2.09-2.25-.29-7.98-.61-15.96-.93-23.94-.92-23.03-1.84-46.06-2.77-69.09-.58-14.15-1.19-28.29-1.76-42.43-.93-23.03-1.84-46.06-2.77-69.1-.56-13.82-1.15-27.63-1.73-41.45,0-.24.08-.48.13-.72,6.47-.57,12.96-.25,19.44-.34,8.81-.13,17.61.03,26.42-.07,2.36-.03,3.32.54,3.34,3.13.05,6.57.46,13.14.72,19.71.03.72.27,1.47-.19,2.16-6.17.25-12.34.37-18.52.12-1.59-.06-2.69,0-2.56,2.15.41,6.74.66,13.48.98,20.22.07,1.26.14,2.53.21,3.79.33,8.96.65,17.92.99,26.88.24,6.17.49,12.34.75,18.51.18,4.19.46,8.39.5,12.58.02,1.8.7,2.25,2.35,2.21,5.52-.12,11.05-.07,16.57-.23,1.87-.06,2.66.43,2.71,2.43.17,6.91.44,13.82.8,20.73.09,1.78-.64,2.09-2.14,2.09-5.52-.03-11.05.08-16.57,0-1.97-.03-2.72.41-2.62,2.6.76,16.36,1.39,32.73,2.07,49.1.46,11.1.99,22.2,1.38,33.31.06,1.69.7,2.06,2.22,2.04,5.6-.09,11.21-.02,16.81-.15,1.95-.04,2.54.64,2.59,2.56.19,6.99.49,13.99.87,20.97.11,1.97-.51,2.52-2.47,2.51Z"/>
      <path class="cls-2" d="M610.29,270.45c-14.68.01-29.35.08-44.02.18-2.01.01-2.85-.58-2.93-2.81-.62-18.52-1.39-37.02-2.14-55.53-.57-13.89-1.18-27.8-1.76-41.69-.9-22.04-1.79-44.08-2.71-66.12-.57-13.91-1.16-27.8-1.76-41.71-.58-13.65-1.36-27.28-1.59-40.94,3.41-.96,6.87-.27,10.3-.31,10.73-.14,21.46-.04,32.2-.1l-.36,25.11c-3.74-.01-7.5.03-11.25-.06-1.74-.04-2.31.36-2.23,2.16.72,16.11,1.37,32.24,2.04,48.36.46,10.94.99,21.87,1.36,32.82.08,2.05.56,2.87,2.78,2.81,5.51-.14,11.04.04,16.55-.05,1.72-.03,2.27.46,2.32,2.21.19,6.74.45,13.49.88,20.22.14,2.26-.63,2.83-2.75,2.78-5.19-.13-10.38.05-15.57-.12-2.44-.08-3.06.76-2.94,3.11.8,16.53,1.51,33.05,2.21,49.58.43,10.2.79,20.4,1.16,30.6.13,3.68.12,3.64,3.63,3.64,5.28,0,10.55.1,15.83.08,1.63,0,2.3.48,2.35,2.25.19,7,.48,13.98.88,20.97.1,1.98-.53,2.58-2.48,2.58Z"/>
      <path class="cls-2" d="M210.07,269.09c.06,1.32-.45,1.67-1.73,1.67-14.91-.04-29.82-.08-44.74,0-2.02.01-2.71-.49-2.77-2.55-.26-8.56-.69-17.11-1.03-25.66-.93-23.28-1.85-46.55-2.78-69.83-.58-14.48-1.2-28.95-1.78-43.42-.93-23.11-1.84-46.22-2.78-69.33-.52-12.74-1.32-25.48-1.47-38.23,1.02-.93,2.21-.27,3.3-.28,7.24-.08,14.48.03,21.71-.15,2.27-.06,2.73.77,2.8,2.81.39,10.67.92,21.34,1.4,32,.77,20.24,1.51,40.47,2.3,60.71.57,14.48,1.2,28.95,1.78,43.42.93,23.11,1.85,46.22,2.78,69.33.17,4.36.46,8.71.56,13.07.04,1.59.48,2.11,2.14,2.09,5.76-.08,11.53.06,17.3.02,1.43,0,2.07.32,2.12,1.88.24,7.49.56,14.97.9,22.45Z"/>
      <path class="cls-2" d="M210.07,269.09c.06,1.32-.45,1.67-1.73,1.67-14.91-.04-29.82-.08-44.74,0-2.02.01-2.71-.49-2.77-2.55-.26-8.56-.69-17.11-1.03-25.66-.93-23.28-1.85-46.55-2.78-69.83-.58-14.48-1.2-28.95-1.78-43.42-.93-23.11-1.84-46.22-2.78-69.33-.52-12.74-1.32-25.48-1.47-38.23,1.02-.93,2.21-.27,3.3-.28,7.24-.08,14.48.03,21.71-.15,2.27-.06,2.73.77,2.8,2.81.39,10.67.92,21.34,1.4,32,.77,20.24,1.51,40.47,2.3,60.71.57,14.48,1.2,28.95,1.78,43.42.93,23.11,1.85,46.22,2.78,69.33.17,4.36.46,8.71.56,13.07.04,1.59.48,2.11,2.14,2.09,5.76-.08,11.53.06,17.3.02,1.43,0,2.07.32,2.12,1.88.24,7.49.56,14.97.9,22.45Z"/>
      <path class="cls-2" d="M383.31,270.66c-7.5-.13-15-.12-22.5-.04-1.82.02-2.48-.64-2.54-2.41-.27-7.98-.6-15.96-.93-23.94-.91-22.62-1.82-45.25-2.74-67.87-.58-13.99-1.18-27.97-1.76-41.95-.93-22.71-1.83-45.41-2.75-68.12-.57-13.9-1.18-27.8-1.74-41.71-.04-.97-.25-1.97.15-2.93,5.49-.53,10.99-.21,16.49-.31,2.79-.05,5.6.2,8.38.06,1.94-.09,2.29.69,2.35,2.43.28,8.87.68,17.73,1.05,26.6.03.57.14,1.14.21,1.7.55,14.32,1.07,28.64,1.64,42.95.88,22.13,1.8,44.26,2.71,66.39.59,14.4,1.19,28.79,1.79,43.19.88,21.06,1.74,42.12,2.67,63.17.08,1.94-.26,2.82-2.47,2.78Z"/>
      <path class="cls-2" d="M383.31,270.66c-7.5-.13-15-.12-22.5-.04-1.82.02-2.48-.64-2.54-2.41-.27-7.98-.6-15.96-.93-23.94-.91-22.62-1.82-45.25-2.74-67.87-.58-13.99-1.18-27.97-1.76-41.95-.93-22.71-1.83-45.41-2.75-68.12-.57-13.9-1.18-27.8-1.74-41.71-.04-.97-.25-1.97.15-2.93,5.49-.53,10.99-.21,16.49-.31,2.79-.05,5.6.2,8.38.06,1.94-.09,2.29.69,2.35,2.43.28,8.87.68,17.73,1.05,26.6.03.57.14,1.14.21,1.7.55,14.32,1.07,28.64,1.64,42.95.88,22.13,1.8,44.26,2.71,66.39.59,14.4,1.19,28.79,1.79,43.19.88,21.06,1.74,42.12,2.67,63.17.08,1.94-.26,2.82-2.47,2.78Z"/>
    </g>
    <path class="cls-1" d="M650.28,8.99l-.85,58.13c0,.05-.06.08-.1.04l-3.77-3.49-21.42-19.82s-.05-.01-.08,0l-6.53,5.63-2,1.73-17.64,15.2s-.1,0-.1-.05l.3-20.36.04-2.04.36-25.13.03-1.76.13-8.59c.06-4.75,3.9-8.55,8.55-8.48l35.06.52c4.52.06,8.11,3.86,8.04,8.47Z"/>
  </g>
</svg>