<?xml version="1.0" encoding="UTF-8"?>
<svg id="Camada_2" data-name="Camada 2" xmlns="http://www.w3.org/2000/svg" viewBox="0 0 20 40">
  <defs>
    <style>
      .cls-1 {
        fill: #004fff;
      }

      .cls-1, .cls-2 {
        stroke-width: 0px;
      }

      .cls-2 {
        fill: #ff0049;
      }
    </style>
  </defs>
  <g id="Camada_1-2" data-name="Camada 1">
    <g>
      <path class="cls-2" d="M19.5,36.5H.5c-.28,0-.5.22-.5.5v2.5c0,.28.22.5.5.5h19c.28,0,.5-.22.5-.5v-2.5c0-.28-.22-.5-.5-.5ZM19.5,0H.5C.22,0,0,.22,0,.5v2.5c0,.28.22.5.5.5h19c.28,0,.5-.22.5-.5V.5c0-.28-.22-.5-.5-.5Z"/>
      <path class="cls-1" d="M19,12v-6H1v6c0,3.49,1.99,6.51,4.89,8-2.9,1.49-4.89,4.51-4.89,8v6h18v-6c0-3.49-1.99-6.51-4.89-8,2.9-1.49,4.89-4.51,4.89-8ZM3.61,12.86c0-.69.56-1.25,1.25-1.25s1.25.56,1.25,1.25c0,2.15,1.75,3.89,3.89,3.89.69,0,1.25.56,1.25,1.25s-.56,1.25-1.25,1.25c-3.52,0-6.39-2.87-6.39-6.39ZM16,28v2.48l-4.83-3.49c-.35-.25-.76-.38-1.17-.38s-.82.13-1.17.38l-4.83,3.49v-2.48c0-3.31,2.69-6,6-6s6,2.69,6,6Z"/>
    </g>
  </g>
</svg>