<?xml version="1.0" encoding="UTF-8"?>
<svg id="Camada_2" data-name="Camada 2" xmlns="http://www.w3.org/2000/svg" viewBox="0 0 36.37 38.38">
  <defs>
    <style>
      .cls-1 {
        fill: #004fff;
        stroke-width: 0px;
      }
    </style>
  </defs>
  <g id="Camada_1-2" data-name="Camada 1">
    <g>
      <path class="cls-1" d="M9.04,4.4c-2.58-.84-3.42-1.68-4.26-4.26-.06-.19-.32-.19-.38,0C3.56,2.72,2.72,3.56.14,4.4c-.19.06-.19.32,0,.38,2.58.84,3.42,1.68,4.26,4.26.06.19.32.19.38,0,.84-2.58,1.68-3.42,4.26-4.26.18-.06.18-.32,0-.38Z"/>
      <path class="cls-1" d="M35.78,16.69l-6.31-7.37c-.47-.55-1.16-.87-1.89-.87H9.79c-.73,0-1.41.32-1.89.87l-6.31,7.37c-.8.93-.8,2.31,0,3.24l15.21,17.6c.99,1.15,2.77,1.15,3.76,0l15.21-17.6c.8-.93.81-2.3,0-3.24ZM13.25,23.64c-.08.26-.45.26-.53,0-1.18-3.62-2.35-4.79-5.97-5.97-.26-.08-.26-.45,0-.53,3.62-1.18,4.79-2.35,5.97-5.97.08-.26.45-.26.53,0,1.18,3.62,2.35,4.79,5.97,5.97.26.08.26.45,0,.53-3.62,1.18-4.79,2.35-5.97,5.97ZM24.83,24.53c-1.76.57-2.32,1.14-2.9,2.9-.04.13-.22.13-.26,0-.57-1.76-1.14-2.32-2.9-2.9-.13-.04-.13-.22,0-.26,1.76-.57,2.32-1.14,2.9-2.9.04-.13.22-.13.26,0,.57,1.76,1.14,2.32,2.9,2.9.13.04.13.22,0,.26Z"/>
    </g>
  </g>
</svg>