<?xml version="1.0" encoding="UTF-8"?>
<svg id="Camada_2" data-name="Camada 2" xmlns="http://www.w3.org/2000/svg" viewBox="0 0 59.36 64.04">
  <defs>
    <style>
      .cls-1 {
        fill: #004fff;
      }

      .cls-1, .cls-2 {
        stroke-width: 0px;
      }

      .cls-2 {
        fill: #ff0049;
      }
    </style>
  </defs>
  <g id="Camada_1-2" data-name="Camada 1">
    <g>
      <path class="cls-1" d="M59.36,37.43c0,.72-.38,1.35-1.02,1.68l-27.1,13.93c-.98.5-2.14.5-3.12,0L1.02,39.11c-.64-.33-1.02-.96-1.02-1.68s.38-1.35,1.02-1.68l4.53-2.33,21.5,11.05c.82.42,1.72.63,2.62.63s1.8-.21,2.62-.63l21.5-11.05,4.53,2.33c.64.33,1.02.96,1.02,1.68Z"/>
      <path class="cls-2" d="M59.36,48.06c0,.72-.38,1.35-1.02,1.68l-27.1,13.93c-.98.5-2.14.5-3.12,0L1.02,49.73c-.64-.33-1.02-.96-1.02-1.68s.38-1.35,1.02-1.68l4.53-2.33,21.5,11.05c.82.42,1.72.63,2.62.63s1.8-.21,2.62-.63l21.5-11.05,4.53,2.33c.64.33,1.02.96,1.02,1.68Z"/>
      <path class="cls-2" d="M59.36,26.8c0,.72-.38,1.35-1.02,1.68l-4.53,2.33-1.27.65-1.27.65-20.02,10.29c-.98.5-2.14.5-3.12,0l-20.02-10.29-1.27-.65-1.27-.65-4.53-2.33c-.64-.33-1.02-.96-1.02-1.68s.38-1.35,1.02-1.68l4.53-2.33,7.8,4.01,1.27.65,1.27.65,11.16,5.74c.82.42,1.72.63,2.62.63s1.8-.21,2.62-.63l11.16-5.74,1.27-.65,1.27-.65,7.8-4.01,4.53,2.33c.64.33,1.02.96,1.02,1.68Z"/>
      <path class="cls-1" d="M59.36,16.17c0,.72-.38,1.35-1.02,1.68l-4.53,2.33-1.27.65-1.27.65-7.8,4.01-1.27.65-1.27.65-9.68,4.98c-.98.5-2.14.5-3.12,0l-9.68-4.98-1.27-.65-1.27-.65-7.8-4.01-1.27-.65-1.27-.65-4.53-2.33c-.64-.33-1.02-.96-1.02-1.68s.38-1.35,1.02-1.68L28.82.21c.27-.14.57-.21.86-.21s.59.07.86.21l27.79,14.28c.64.33,1.02.96,1.02,1.68Z"/>
    </g>
  </g>
</svg>