<?xml version="1.0" encoding="UTF-8"?>
<svg id="Camada_2" data-name="Camada 2" xmlns="http://www.w3.org/2000/svg" viewBox="0 0 151.03 187.68">
  <defs>
    <style>
      .cls-1 {
        fill: #800025;
      }

      .cls-1, .cls-2, .cls-3, .cls-4, .cls-5 {
        stroke-width: 0px;
      }

      .cls-2 {
        fill: #000;
      }

      .cls-3 {
        fill: #004fff;
      }

      .cls-4 {
        fill: #194491;
      }

      .cls-5 {
        fill: #ff0049;
      }
    </style>
  </defs>
  <g id="Camada_1-2" data-name="Camada 1">
    <path class="cls-4" d="M88.1,17.29l-9.75-.14-1.29-.03-13.11-.19c6.55-7.79,11.61-12.02,15.3-14.31,5.29-3.29,7.77-2.56,7.77-2.56h0s1.07,17.22,1.07,17.22Z"/>
    <g>
      <g>
        <rect class="cls-2" x="16.03" y="19.65" width="135" height="168" rx="14.7" ry="14.7"/>
        <rect class="cls-2" x="16.03" y="19.65" width="135" height="168" rx="14.7" ry="14.7"/>
      </g>
      <g>
        <rect class="cls-2" x="8.03" y="19.65" width="135" height="168" rx="14.7" ry="14.7"/>
        <rect class="cls-1" x="8.03" y="19.65" width="135" height="168" rx="14.7" ry="14.7"/>
      </g>
      <g>
        <path class="cls-2" d="M120.37,19.68l-105.61-.04c-8.12,0-14.7,6.57-14.7,14.69L0,172.93c0,8.12,6.57,14.7,14.69,14.7l105.61.04c8.12,0,14.7-6.57,14.7-14.69l.06-138.61c0-8.12-6.57-14.7-14.69-14.7Z"/>
        <rect class="cls-5" x=".03" y="19.65" width="135" height="168" rx="14.7" ry="14.7"/>
      </g>
    </g>
    <path class="cls-3" d="M122.08.6L87.03.08c-4.65-.06-8.48,3.73-8.55,8.48l-.13,8.59-.03,1.76-.36,25.13-.04,2.04-.3,20.36c0,.05.06.08.1.05l17.64-15.2,2-1.73,6.53-5.63s.05-.01.08,0l21.42,19.82,3.77,3.49s.1.01.1-.04l.85-58.13c.06-4.61-3.52-8.41-8.04-8.47Z"/>
  </g>
</svg>