<?xml version="1.0" encoding="UTF-8"?>
<svg id="Camada_2" data-name="Camada 2" xmlns="http://www.w3.org/2000/svg" viewBox="0 0 698.21 322.88">
  <defs>
    <style>
      .cls-1 {
        fill: #edff00;
      }

      .cls-1, .cls-2, .cls-3 {
        stroke-width: 0px;
      }

      .cls-2 {
        fill: #010101;
      }

      .cls-3 {
        fill: #ff0049;
      }
    </style>
  </defs>
  <g id="Camada_1-2" data-name="Camada 1">
    <g>
      <path class="cls-2" d="M324.5,31.24s-.03,0-.05,0v-.05s0,0,.01,0c0,0,.01,0,.02,0,.34.26.32.55.21.81.09-.25.11-.52-.19-.77Z"/>
      <path class="cls-2" d="M441.44,32.97c-.14.31-.28.63-.41.94l.16-.8.41-.65c0-.15-.04-.3-.19-.42-.04-.01-.06,0-.11-.03l-.03-.08s.03.02.04.03c.05.03.1.06.14.09h0c.13.11.17.25.16.38h0c0,.09-.03.18-.06.27-.03.09-.07.18-.11.26Z"/>
      <path class="cls-2" d="M695.8,272.62c-2.97,3.71-6.4,6.99-9.63,10.45-11.34,12.19-22.78,24.26-34.15,36.41-.67.72-1.3,1.1-2.31,1.1-8.24.01-16.48.04-24.71.13-1.21.01-1.55-.35-1.55-1.52,0-3.6-.12-7.19-.76-11.07-2.07,2.14-4.17,4.27-6.21,6.44-1.58,1.68-3.11,3.41-4.61,5.15-.65.74-1.34,1.03-2.35,1.03-15.31-.05-30.64-.08-45.95-.04-1.3,0-1.67-.36-1.68-1.64-.01-4.51-.13-9.03-.22-13.82-1.77.61-2.25,1.79-3.03,2.63-3.68,3.89-7.35,7.79-11,11.7-.66.7-1.33,1.11-2.34,1.11-8.9-.03-17.79-.05-26.69.01-1.27.01-1.64-.36-1.82-1.58-.61-3.96-1.36-7.91-2-11.56-2.52,2.41-5.45,4.69-7.68,7.5-3.22,4.07-6.69,6.4-12.24,5.82-5.46-.56-11.03-.17-16.54-.12-1.51.01-2.04-.37-2.1-2.03-.3-9.19-.77-18.37-1.2-27.84-1.48.83-2.22,2.09-3.18,3.12-5.26,5.67-10.67,11.22-15.75,17.04-8.55,9.76-19.42,12.55-31.83,11.21-8.37-.92-15.24-4.35-19.94-11.53-1.43-2.2-2.48-4.58-3.43-7.31-3.47,3.05-6.15,6.57-9.21,9.72-2.17,2.25-4.3,4.55-6.35,6.89-.72.83-1.54.8-2.44.8-7.66-.03-15.31-.18-22.97.01-2.38.06-2.76-.88-2.8-2.76-.1-4.36-.28-8.72-.4-13.09-.1-4.07-.15-8.13-.23-12.2-.25-.05-.49-.09-.74-.14-5.25,5.73-10.59,11.38-15.71,17.2-4.98,5.66-10.34,10.65-18.1,11.96-13.23,2.23-25.28.45-34.23-10.82-1.3-1.65-2.18-3.65-3.37-5.67-4.18,4.58-8.35,9.06-12.41,13.66-1.14,1.29-2.29,1.87-4.02,1.87-14.91-.03-29.81,0-44.73.09-1.76.01-2.27-.58-2.23-2.26.04-3.1-.09-6.21-.15-9.79-3.02,2.3-5.07,4.85-7.01,7.39-2.62,3.41-5.59,4.76-9.99,4.69-13.84-.26-27.68-.09-41.52.05-2.13.01-1.92-1.24-1.98-2.49-.26-6.49-.49-12.99-.7-19.5-.09-2.7-.12-5.4-.17-8.1-.35-.19-.71-.39-1.06-.57-.83,1.1-1.58,2.27-2.49,3.29-5.66,6.31-11.36,12.58-17.06,18.86-7.58,8.35-17.31,10.81-28.14,10.14-7.41-.45-14.2-2.48-19.48-8.13-4.43-4.73-6.56-10.5-7.73-16.7-.41-2.17-.68-4.35-1.02-6.62-.89.08-1.25.8-1.69,1.29-6.17,6.86-12.32,13.71-18.44,20.59-7.53,8.48-17.3,10.52-27.98,9.52-9.83-.93-17.96-4.97-23.1-13.85-3.25-5.62-3.58-11.81-3.81-18.09-.89-24.25-1.85-48.51-2.81-72.76-.67-17.19-1.41-34.37-2.09-51.54C1.65,145.26.79,124.14.04,103c-.26-7.14.7-14.1,4.11-20.56,2.03-3.85,5.16-6.78,7.97-9.98,8.74-9.94,17.56-19.82,26.37-29.72,2.39-2.7,4.79-5.38,7.2-8.06-1.92,5.5-2.74,11.41-2.49,18.03.31,8.5.67,16.98,1.02,25.48l.46,11.31,2.38,59.14c.74,18.54,1.48,37.1,2.21,55.65.19,4.93.37,9.85.54,14.78.3,8.51.61,17.31,1.02,25.97.52,10.9,5.01,19.08,13.35,24.34,5.62,3.54,12.1,5.33,19.25,5.33,2.21,0,4.53-.17,6.91-.5,8.64-1.23,15.3-5,19.79-11.21,4.12-5.68,6.13-12.54,5.97-20.36-.1-4.75-.3-9.57-.49-14.23l-.57-14.4c-.28-7.17-.57-14.33-.8-21.51-.13-3.65-2.5-4.43-4.6-4.43h-.01c-5,.06-9.99.14-14.99.14-1.99,0-3.99-.01-6.11-.04-1.01,0-2.48.13-3.52,1.23-1.03,1.11-1.11,2.58-1.03,3.9.98,18.08,1.59,33.88,1.87,48.3.05,2.16-.4,2.18-1.59,2.26-.22.03-.44.03-.65.03-1.39,0-1.87-.15-2.16-2.05-.23-1.47-.37-3.05-.44-4.67-.39-9.76-.75-19.52-1.11-29.27l-.31-8.52-.35-7.73c-.25-5.71-.5-11.39-.75-17.1-.45-10.86-.89-21.72-1.33-32.58l-.06-1.59c-.01-.4,0-.8.03-1.19v-.79s-.49-11.81-.49-11.81c-.39-8.88-.77-17.77-1.14-26.65-.53-13.21-1.05-26.13-1.45-38.96-.04-1.33-.14-2.65-.25-3.98-.22-2.85-.44-5.54-.03-8.2.26-1.63.66-1.7,1.76-1.7h.32c1.87.1,2.54.27,2.78,3.2.32,3.93.48,7.95.62,11.84l.1,2.62c.45,11.43.9,22.84,1.28,34.27.12,3.33,2.25,4.03,4.08,4.03,2.87-.01,5.73-.03,8.6-.03,4.36,0,8.73.03,13.25.08,1.03,0,2.36-.13,3.33-1.14.98-1.03,1.06-2.43,1.01-3.54-.54-12.09-1.01-24.17-1.46-36.26l-.44-11.43c-.05-.56-.09-1.11-.12-1.67,3.12-3.12,5.84-6.65,8.87-9.85,1.38-1.46,2.65-3.03,3.99-4.53-2.48,6.59-3.52,14.04-3.22,22.65.52,14.01,1.1,28.02,1.67,42.03l1.23,30.11c.45,10.99.89,21.99,1.32,32.99.27,6.73.52,13.47.76,20.21.49,13.09.98,26.19,1.55,39.28.09,2.01.14,4.04.21,6.06.18,6.75.37,13.73,1.79,20.58,1.3,6.24,3.98,15.15,12.28,20.57,5.72,3.73,12.16,5.63,19.11,5.63,3.95,0,8.16-.61,12.51-1.81,13.45-3.72,21.1-13.54,20.99-26.96-.1-12.27-.66-24.71-1.2-36.75-.21-4.47-.4-8.95-.58-13.42-.41-10.5-3.95-97.58-3.95-97.58-.56-13.79-1.1-27.57-1.61-41.36-.25-6.95-.79-12.76-2.61-18.68-.12-.31-.23-.63-.36-.94,1.81-1.92,3.63-3.85,5.42-5.8,2.38-2.61,4.6-5.36,7.1-7.85.14,8.37.54,16.82.93,25.01.18,3.8.35,7.59.5,11.39.56,13.42,1.08,26.84,1.63,40.26l1.16,29.08c.28,7.13,1.48,36.08,1.78,43.42l2.79,69.83c.12,2.84.23,5.68.36,8.52.25,5.71.49,11.4.66,17.12.09,3.1,1.61,4.55,4.76,4.55h.09c6.69-.03,13.38-.05,20.06-.05,8.23,0,16.44.03,24.67.05.83,0,2.03-.1,2.89-1.02.97-1.01.9-2.36.89-2.8-.3-6.77-.65-14.64-.9-22.43-.05-1.77-.81-3.87-4.2-3.87h-2.35c-1.82,0-3.64-.01-5.46-.03-1.83-.01-3.67-.03-5.5-.03-1.33,0-2.66.01-4.04.03,0-.03-.01-.05-.01-.08-.06-2.75-.19-5.51-.34-8.28-.08-1.6-.16-3.22-.22-4.83l-2.78-69.34c-.25-6.04-.49-12.09-.75-18.12-.35-8.43-.71-16.86-1.03-25.29-.56-14.27-1.1-28.54-1.63-42.8l-.68-17.92-.08-1.9c3.34-3.45,6.44-7.13,9.66-10.7,5.97-6.6,11.89-13.21,17.84-19.82l.67,16.05c.34,8.11.68,16.2,1.01,24.3.49,11.9,2.78,69.09,2.78,69.09.28,7.08.58,14.15.88,21.23s.59,14.14.88,21.21c.74,17.99,1.46,35.97,2.17,53.96l.68,17.11c.3,7.32.58,14.64.85,21.95.1,2.81,1.48,4.25,4.16,4.25,6.48-.03,12.98-.04,19.47-.04,8.42,0,16.84.01,25.26.06h.06c1.1,0,2.49-.13,3.49-1.18.99-1.07,1.05-2.52.99-3.51-.41-7.4-.7-14.24-.87-20.9-.08-3.03-1.59-4.57-4.49-4.57h-.21c-3.06.06-6.11.08-9.17.09-2.54,0-5.09.01-7.75.05h-.01v-.05c-.27-7.42-.59-14.85-.92-22.27l-.48-11.04-.59-14.56c-.46-11.52-.93-23.03-1.47-34.55v-.41c.12-.01.52-.01.53-.01,1.7.03,3.41.03,5.11.03,1.61,0,8.03-.03,9.63-.03h1.9c.66,0,2.17,0,3.22-1.1,1.05-1.11.97-2.66.94-3.16-.36-6.77-.63-13.73-.8-20.67-.08-2.91-1.63-4.44-4.51-4.44h-.34c-3.03.09-6.08.12-9.13.14-2.47.03-4.95.04-7.54.09h-.12v-.17c-.03-2.92-.18-5.87-.32-8.72-.06-1.32-.13-2.62-.18-3.94l-.08-1.91c-.23-5.53-.46-11.05-.67-16.58-.23-6.07-.99-26.92-.99-26.92l-.12-2.04c8.83-9.76,17.66-19.54,26.51-29.3,1.99-2.2,4-4.38,6-6.56-2.6,6.97-2.74,14.07-2.53,19.68.34,9.39.75,18.77,1.15,28.16.19,4.52.39,9.04.59,13.74.59,14.41,1.19,28.83,1.77,43.24.93,23.03,1.86,46.07,2.78,69.1.16,3.94.3,7.88.43,11.81.3,8.2.59,16.67,1.06,25,.66,11.83,6.04,20.37,15.98,25.42,5.04,2.54,10.67,3.83,16.73,3.83,2.07,0,4.21-.14,6.4-.44,8.01-1.06,14.41-4.43,19.05-9.98,4.74-5.69,7.04-12.67,7.01-21.32-.01-4.67-.23-9.4-.46-13.96-.1-2.21-.22-4.4-.3-6.6l-.15-3.94c-.34-8.56-.66-17.12-.93-25.68-.1-3.01-1.63-4.53-4.73-4.53-3.81.06-7.62.09-11.41.09-3.27,0-6.52-.03-9.92-.06-.94,0-2.3.13-3.28,1.15-.97,1.03-1.03,2.39-.98,3.45.36,6.74.62,13.47.88,20.21l.3,7.61c.28,7.09.57,14.16.76,21.25.05,1.67-.53,1.82-1.47,1.9-.26.01-.49.03-.72.03-1.52,0-1.89-.3-2.17-1.77-.21-1.03-.34-2.08-.37-3.11-.54-12.68-1.07-25.36-1.6-38.04l-.62-15.07c-.46-11.09-.93-22.18-1.37-33.26l-2.78-69.36c-.13-3.19-.27-6.39-.41-9.58-.15-3.31-.3-6.61-.43-9.9l-.05-1.25c-.17-4.03-.32-8.2-.37-12.28-.03-1.79.32-2.41.53-2.62.34-.35,1.11-.41,1.7-.41.15,0,.34,0,.52.01,1.24.06,1.85.21,2.12,2.56.59,4.96.72,10.08.84,15.04.08,3.27.17,6.65.39,9.99.41,6.52.62,13.2.83,19.64l.13,4.24c.1,2.98,1.61,4.49,4.73,4.49h.01c3.59-.06,7.17-.1,10.76-.1s6.96.04,10.59.09c.88,0,2.17-.12,3.1-1.08,1.05-1.1.98-2.63.94-3.37-.76-17.46-1.41-33.2-1.96-48.12l-.05-1.12c-.16-4.66-.32-9.49-2.27-14.2-.13-.27-.25-.53-.37-.8,3.25-3.55,6.52-7.09,9.76-10.64.01.17.03.32.04.46l.04.56c.3,7.22.59,14.44.9,21.65.27,6.69.56,13.36.84,20.05.48,11.76,2.75,68.12,2.75,68.12.28,7.08.58,14.15.89,21.24.28,6.89.58,13.8.86,20.71.77,19.02,1.54,38.04,2.31,57.06l.59,14.69c.27,6.69.54,13.36.76,20.04.1,2.88,1.67,4.4,4.62,4.4,3.51-.04,7.02-.05,10.54-.05,3.96,0,7.94.03,11.92.09h.17c.56,0,2.23,0,3.36-1.17,1.02-1.06,1.1-2.49,1.03-3.76-.76-17.3-1.47-34.6-2.19-51.91l-2.84-68.72c-.71-17.37-1.43-34.75-2.13-52.11-.39-9.94-.76-19.88-1.14-29.83l-.5-13.31-.09-.59c-.05-.31-.1-.62-.12-.93v-.05c4.65-4.73,8.91-9.8,13.42-14.66.37-.41.75-.84,1.12-1.25-2.63,6.77-3.65,14.36-3.25,24.21.58,14.93,1.2,29.87,1.81,44.79l1.24,30.03c.41,9.85.81,19.69,1.2,29.54.26,6.4.5,12.81.74,19.21.48,12.55.96,25.53,1.55,38.3.1,2.26.17,4.52.23,6.78.18,6.83.37,13.91,1.79,20.84,2.57,12.58,8.24,20.16,17.86,23.85,4.47,1.72,9.18,2.58,14.04,2.58,3.42,0,6.97-.44,10.54-1.29,8.46-2.03,14.77-6.35,18.77-12.86,3.63-5.9,3.9-12.59,3.68-18.36-.59-15.75-1.25-31.52-1.91-47.27l-2.53-61.29-.97-23.9c-.59-14.56-1.17-29.14-1.78-43.71-.08-1.61-.12-3.24-.17-4.87-.21-7.5-.44-15.26-2.81-22.91-.12-.32-.25-.66-.36-.97,4.12-4.4,8.22-8.79,12.34-13.18.1.99.21,1.99.25,3,.61,14.23,1.2,28.47,1.78,42.7,0,0,2.23,54.98,2.74,67.39.28,6.95.58,13.89.89,20.84.28,6.79.57,13.58.85,20.38.72,17.47,1.43,34.93,2.14,52.4l.65,15.88c.3,7.27.59,14.54.85,21.81.1,2.81,1.49,4.25,4.18,4.25h.01c3.94-.05,7.88-.09,11.81-.09,3.14,0,6.26.03,9.52.06.92,0,2.25-.12,3.2-1.11.94-.99,1.02-2.34.96-3.5-.41-8.66-.79-17.34-1.15-26-.22-4.98-.43-9.97-.65-14.95-.28-6.25-.57-12.5-.87-18.74-.34-7.17-.67-14.33-.98-21.49-.1-2.47-.22-4.95-.32-7.41l5.94,35.42c3.01,17.95,6.03,35.91,8.99,53.88.44,2.71,1.92,3.99,4.75,3.99h.01c3.86-.05,7.73-.08,11.6-.08,4.27,0,8.55.04,12.82.12h.22c1.05,0,2.56-.13,3.62-1.24,1.06-1.12,1.14-2.61,1.06-3.91-.28-5.32-.49-10.65-.7-15.98l-.25-6.44-.65-15.74c-.39-9.4-.77-18.8-1.15-28.2-.96-23.69-1.89-47.39-2.8-71.09-.23-5.73-.44-11.48-.65-17.22-.26-6.93-.5-13.87-.79-20.8-.52-12.78-1.05-25.57-1.58-38.36l-.7-16.89-.08-2.07c3.37-3.63,6.74-7.24,10.11-10.87.12-.12.23-.25.34-.39.19,9.66.65,19.41,1.08,28.86.15,3.5.32,7.01.46,10.51.61,13.89,1.19,27.8,1.76,41.69l2.72,66.13c.26,6.13.52,12.28.77,18.41.34,7.76.66,15.52.97,23.28l.19,4.67c.68,16.66,1.38,33.89,1.96,50.83.1,3.24,1.72,4.82,4.92,4.82h.08c17.75-.13,31.32-.18,44-.18,1.02,0,2.49-.12,3.52-1.21,1.02-1.07,1.06-2.53,1.01-3.54-.4-7.13-.68-14.16-.88-20.92-.05-1.94-.85-4.26-4.42-4.26h-1.7c-2.36,0-4.71-.01-7.08-.04-2.34-.01-4.69-.04-7.04-.04h-.21c-.4,0-.9,0-1.28-.01-.04-.41-.05-1.02-.08-1.64l-.19-5.16c-.31-8.48-.62-16.97-.97-25.45-.63-15.06-1.38-32.54-2.21-49.59-.03-.48-.01-.76.01-.92.12-.01.3-.04.57-.04h.23c1.92.08,3.86.09,5.78.09h5.05c1.59-.01,3.18,0,4.75.04h.31c1.02,0,2.49-.13,3.53-1.23,1.06-1.14,1.1-2.67,1.03-3.74-.37-5.84-.65-12.24-.88-20.16-.08-2.79-1.51-4.21-4.42-4.21-1.2.03-2.4.04-3.6.04-1.34,0-6.74-.04-8.08-.04-1.64,0-3.27.01-5.05.05-.19,0-.34-.01-.44-.03-.01-.14-.05-.39-.06-.8-.26-7.59-.59-15.2-.93-22.8l-.43-10.02-.61-14.51c-.46-11.28-.93-22.57-1.43-33.86h.13c2.3.05,4.61.06,6.91.06h4.3s.04-.01.04-.01l-.3,20.36.06,1.36h1.81s17.22-14.86,17.22-14.86c.37,8.63.72,17.25,1.07,25.88l.98,23.71c.27,6.68.57,13.34.85,20,.3,6.82.59,13.63.88,20.45.48,11.69,2.71,66.12,2.71,66.12.57,13.89,1.16,27.8,1.76,41.69.06,1.67.15,3.32.23,4.98.18,3.45.35,7.01.41,10.5.03,1.43.57,3.83,3.89,3.83h.61c4.03-.06,8.04-.12,12.06-.12s7.48.05,10.85.14Z"/>
      <path class="cls-2" d="M561.4,129.81c-.83-5.09-1.66-10.18-2.48-15.27-1.21-7.45-2.42-14.89-3.64-22.34-1.73-10.52-3.47-21.04-5.21-31.55l-2.99-18.05c-.2-1.21-.38-2.43-.56-3.65l-.25-1.71-.27-1.56c3.69-3.97,7.38-7.94,11.05-11.92l2.54,60.97c.63,15.03,1.25,30.05,1.82,45.08Z"/>
      <path class="cls-2" d="M305.19,48.43c-3.03,3.87-6.68,7.22-9.86,10.98-2.14,2.51-4.43,4.89-6.71,7.29l-.16-3.71c-.21-4.84-.42-9.68-.72-14.51h.41c2.32.1,4.68.14,7.22.14,2.99,0,6.22-.06,9.82-.19Z"/>
      <path class="cls-2" d="M162.06,242.65c-.23,2.09-.8,2.17-1.47,2.27-.35.05-.68.08-1.01.08-1.37,0-2.1-.49-2.53-1.69-.96-2.7-.99-5.59-1.02-8.65-.01-.99-.01-1.98-.06-2.96-.44-11-.85-22-1.27-32.99-.27-7.1-.54-14.2-.83-21.29-.36-9.52-.75-19.02-1.14-28.52l-.67-16.39-.66-16.41c-.39-9.9-.79-19.81-1.2-29.72-.23-5.68-.48-11.38-.72-17.06-.25-5.58-.49-11.16-.72-16.73-.05-.96.01-2,.15-3.07.34-2.35.74-2.38,2.25-2.47.16-.01.32-.03.46-.03,1.6,0,2.21.53,2.52,2.16.65,3.42.76,6.88.88,10.54.05,1.65.1,3.31.21,4.95.04.68.04,1.38.05,2.08v1.03s.09,2.17.09,2.17h.04l.56,14.72c.49,12.73.97,25.45,1.47,38.18.63,16.02,1.28,32.03,1.92,48.05l1.25,30.83c.45,11.45.92,22.92,1.42,34.36l.04.98c.1,1.95.19,3.78-.01,5.59Z"/>
      <path class="cls-2" d="M478.9,242.2c-.25,2.25-.88,2.52-1.74,2.65-.25.04-.5.06-.74.06-1.32,0-2.17-.64-2.67-2.02-.66-1.78-.72-3.76-.78-5.84l-.04-1.09c-.41-10.31-.81-20.63-1.2-30.94-.33-8.6-.66-17.21-1-25.81-.39-9.91-.8-19.82-1.21-29.73l-2.85-69.21c-.4-9.53-.8-19.07-1.16-28.61-.17-4.44,1-4.54,2.35-4.65.16-.01.32-.02.47-.02,1.03,0,2.43,0,2.88,4.23.14,1.29.13,2.61.13,4.01,0,.66,0,1.32,0,1.98l.04,2.08h.27s.5,12.92.5,12.92c.43,11.05.85,22.1,1.29,33.14.41,10.19.83,20.38,1.25,30.57l1.09,26.4c.41,10.12.82,20.25,1.26,30.38.34,7.9.69,15.81,1.04,23.71.33,7.47.67,14.94.99,22.41.05,1.15-.06,2.35-.17,3.38Z"/>
    </g>
    <g>
      <path class="cls-3" d="M698.21,270.62c-.28,0-.58-.01-.88-.03-8.16-.26-16.31-.19-24.47-.06-1.25.01-2.36.15-2.4-1.81-.09-5.18-.43-10.36-.65-15.53-.59-13.89-1.19-27.79-1.77-41.69-.9-22.04-1.79-44.08-2.71-66.11-.56-13.49-1.16-26.97-1.72-40.47-.71-17.07-1.39-34.14-2.12-51.21l6.48-5.59,21.56,19.95c.04,1.06.09,2.13.13,3.19.96,22.62,1.95,45.23,2.89,67.85.56,13.07,1.02,26.15,1.58,39.23,1.02,24.02,2.08,48.03,3.11,72.04.12,2.72.13,5.44.27,8.15.03.75-.45,1.67.5,2.22.06,3.29.13,6.59.18,9.88Z"/>
      <path class="cls-3" d="M698.21,270.62c-.28,0-.58-.01-.88-.03-8.16-.26-16.31-.19-24.47-.06-1.25.01-2.36.15-2.4-1.81-.09-5.18-.43-10.36-.65-15.53-.59-13.89-1.19-27.79-1.77-41.69-.9-22.04-1.79-44.08-2.71-66.11-.56-13.49-1.16-26.97-1.72-40.47-.71-17.07-1.39-34.14-2.12-51.21l6.48-5.59,21.56,19.95c.04,1.06.09,2.13.13,3.19.96,22.62,1.95,45.23,2.89,67.85.56,13.07,1.02,26.15,1.58,39.23,1.02,24.02,2.08,48.03,3.11,72.04.12,2.72.13,5.44.27,8.15.03.75-.45,1.67.5,2.22.06,3.29.13,6.59.18,9.88Z"/>
      <path class="cls-3" d="M590.59,270.64c-8.16-.16-16.32-.14-24.48-.05-1.77.02-2.41-.49-2.7-2.25-3.61-21.91-7.3-43.8-10.96-65.69-2.8-16.7-5.6-33.41-8.4-50.11-.11-.65-.23-1.28-.81-1.8.49,12.13.95,24.14,1.48,36.15.58,13.41,1.25,26.81,1.84,40.22.61,13.66,1.14,27.31,1.8,40.97.09,1.82-.27,2.47-2.19,2.44-7.09-.08-14.18-.07-21.27.03-1.77.02-2.04-.85-2.09-2.26-.28-7.74-.6-15.47-.92-23.21-.91-22.3-1.81-44.59-2.73-66.89-.57-13.74-1.18-27.48-1.74-41.22-.92-22.46-1.82-44.93-2.74-67.39-.58-14.24-1.17-28.47-1.78-42.7-.07-1.64-.28-3.28-.43-4.91.8-1.03,1.93-.56,2.89-.56,7.9-.03,15.8.07,23.7-.02,1.86-.02,2.62.48,2.88,2.36.66,4.64,1.52,9.24,2.3,13.85.27,1.78.52,3.57.82,5.35,2.73,16.54,5.49,33.06,8.2,49.6,3.26,19.86,6.44,39.74,9.74,59.59.47,2.87.54,5.85,1.15,7.29-.14-7.52-.16-16.32-.49-25.1-.82-22.2-1.78-44.4-2.69-66.6-.63-15.29-1.27-30.58-1.91-45.88.8-.62,1.74-.39,2.62-.39,6.58-.02,13.17.07,19.76-.03,1.86-.03,2.23.87,2.28,2.38.13,4.36.3,8.72.45,13.08.76,18.42,1.54,36.84,2.27,55.27.51,12.67.94,25.35,1.43,38.02.92,23.7,1.86,47.4,2.8,71.09.59,14.65,1.2,29.29,1.79,43.94.31,7.49.55,14.98.95,22.46.12,2.19-.41,3.02-2.8,2.98Z"/>
      <path class="cls-3" d="M590.59,270.64c-8.16-.16-16.32-.14-24.48-.05-1.77.02-2.41-.49-2.7-2.25-3.61-21.91-7.3-43.8-10.96-65.69-2.8-16.7-5.6-33.41-8.4-50.11-.11-.65-.23-1.28-.81-1.8.49,12.13.95,24.14,1.48,36.15.58,13.41,1.25,26.81,1.84,40.22.61,13.66,1.14,27.31,1.8,40.97.09,1.82-.27,2.47-2.19,2.44-7.09-.08-14.18-.07-21.27.03-1.77.02-2.04-.85-2.09-2.26-.28-7.74-.6-15.47-.92-23.21-.91-22.3-1.81-44.59-2.73-66.89-.57-13.74-1.18-27.48-1.74-41.22-.92-22.46-1.82-44.93-2.74-67.39-.58-14.24-1.17-28.47-1.78-42.7-.07-1.64-.28-3.28-.43-4.91.8-1.03,1.93-.56,2.89-.56,7.9-.03,15.8.07,23.7-.02,1.86-.02,2.62.48,2.88,2.36.66,4.64,1.52,9.24,2.3,13.85.27,1.78.52,3.57.82,5.35,2.73,16.54,5.49,33.06,8.2,49.6,3.26,19.86,6.44,39.74,9.74,59.59.47,2.87.54,5.85,1.15,7.29-.14-7.52-.16-16.32-.49-25.1-.82-22.2-1.78-44.4-2.69-66.6-.63-15.29-1.27-30.58-1.91-45.88.8-.62,1.74-.39,2.62-.39,6.58-.02,13.17.07,19.76-.03,1.86-.03,2.23.87,2.28,2.38.13,4.36.3,8.72.45,13.08.76,18.42,1.54,36.84,2.27,55.27.51,12.67.94,25.35,1.43,38.02.92,23.7,1.86,47.4,2.8,71.09.59,14.65,1.2,29.29,1.79,43.94.31,7.49.55,14.98.95,22.46.12,2.19-.41,3.02-2.8,2.98Z"/>
      <path class="cls-3" d="M188.1,195.94c-.62-15.47-1.25-30.92-1.89-46.39-.59-14.96-1.21-29.94-1.81-44.91-.63-15.87-1.28-31.75-1.87-47.63-.22-6.09-.67-12.15-2.48-18.04-1.36-3.63-2.94-7.14-5.46-10.15-7.19-8.61-16.84-10.52-27.37-9.93-9.44.53-16.99,4.45-22.11,12.6-.03.25.03.53-.08.74-3.76,7.94-4.76,16.4-4.44,25.04.74,19.91,1.58,39.82,2.39,59.72.61,15.13,1.23,30.27,1.82,45.41.77,19.82,1.45,39.65,2.31,59.47.39,8.78.17,17.62,1.96,26.3,1.59,7.7,4.52,14.78,11.38,19.26,9.31,6.07,19.54,6.43,29.96,3.56,11.01-3.05,19.59-11.09,19.47-24.96-.14-16.72-1.11-33.4-1.78-50.1ZM164.11,242.89c-.22,2-.87,3.73-3.22,4.08-2,.3-3.56-.05-4.62-1.08-.17-.15-.32-.34-.46-.52-.28-.39-.52-.84-.7-1.36-1.42-3.96-1.03-8.13-1.2-12.23-.74-18.09-1.38-36.18-2.09-54.28-.59-14.96-1.21-29.93-1.82-44.89-.62-15.38-1.21-30.76-1.85-46.13-.46-11.27-.99-22.53-1.46-33.79-.05-1.15.03-2.31.18-3.45.44-3.07,1.45-4.07,4.14-4.25,2.87-.19,4.61.89,5.15,3.81.98,5.19.79,10.48,1.11,15.74.05.8.05,1.6.06,2.4v.8h.05c.7,18.35,1.38,36.68,2.1,55.03.89,22.7,1.82,45.39,2.74,68.08.61,15.06,1.19,30.1,1.85,45.14.1,2.31.28,4.61.03,6.89Z"/>
      <path class="cls-3" d="M188.1,195.94c-.62-15.47-1.25-30.92-1.89-46.39-.59-14.96-1.21-29.94-1.81-44.91-.63-15.87-1.28-31.75-1.87-47.63-.22-6.09-.67-12.15-2.48-18.04-1.36-3.63-2.94-7.14-5.46-10.15-7.19-8.61-16.84-10.52-27.37-9.93-9.44.53-16.99,4.45-22.11,12.6-.03.25.03.53-.08.74-3.76,7.94-4.76,16.4-4.44,25.04.74,19.91,1.58,39.82,2.39,59.72.61,15.13,1.23,30.27,1.82,45.41.77,19.82,1.45,39.65,2.31,59.47.39,8.78.17,17.62,1.96,26.3,1.59,7.7,4.52,14.78,11.38,19.26,9.31,6.07,19.54,6.43,29.96,3.56,11.01-3.05,19.59-11.09,19.47-24.96-.14-16.72-1.11-33.4-1.78-50.1ZM164.11,242.89c-.22,2-.87,3.73-3.22,4.08-2,.3-3.56-.05-4.62-1.08-.17-.15-.32-.34-.46-.52-.28-.39-.52-.84-.7-1.36-1.42-3.96-1.03-8.13-1.2-12.23-.74-18.09-1.38-36.18-2.09-54.28-.59-14.96-1.21-29.93-1.82-44.89-.62-15.38-1.21-30.76-1.85-46.13-.46-11.27-.99-22.53-1.46-33.79-.05-1.15.03-2.31.18-3.45.44-3.07,1.45-4.07,4.14-4.25,2.87-.19,4.61.89,5.15,3.81.98,5.19.79,10.48,1.11,15.74.05.8.05,1.6.06,2.4,0,.27.01.54.01.8h.04c.7,18.35,1.38,36.68,2.1,55.03.89,22.7,1.82,45.39,2.74,68.08.61,15.06,1.19,30.1,1.85,45.14.1,2.31.28,4.61.03,6.89Z"/>
      <path class="cls-3" d="M506.71,242.14c-.82-21.71-1.76-43.42-2.66-65.13-.6-14.48-1.2-28.95-1.79-43.42-.92-22.54-1.81-45.07-2.75-67.61-.38-9.11-.1-18.29-2.85-27.15-2.07-5.66-4.98-10.75-9.98-14.35-13.66-9.83-33.44-7.04-44.02,5.93-.31.37-.6.74-.89,1.13-.03.26.08.65-.33.52h0s-.08-.07-.14-.1c-.01,0-.03-.02-.04-.03l.03.08c.05.03.07.02.11.03.16.12.2.27.19.42l-.41.65-.16.8h0c-.02.05-.04.11-.06.16-.11.26-.22.52-.32.77-.04.1-.08.19-.11.29-.04.1-.08.19-.11.29-.06.16-.12.33-.18.49-.06.16-.12.32-.17.48-.1.26-.19.53-.27.79-.07.21-.14.42-.2.63-.05.16-.1.31-.14.47-.1.33-.2.66-.29,1-.09.32-.17.63-.25.96-.05.22-.11.45-.16.67-.03.12-.06.24-.08.36-.04.16-.08.33-.11.49-.13.57-.24,1.15-.34,1.72-.04.22-.08.44-.11.66-.07.42-.14.84-.19,1.26-.03.24-.06.48-.09.72-.02.14-.04.27-.05.41-.15,1.23-.25,2.46-.33,3.7,0,.08,0,.16-.01.24-.03.51-.05,1.02-.07,1.54,0,.22-.01.44-.02.66,0,.22-.01.45-.01.67,0,.2,0,.4,0,.6-.02,1.54.01,3.08.08,4.63.8,20.15,1.64,40.29,2.46,60.45.6,14.64,1.21,29.27,1.8,43.92.76,19.17,1.39,38.34,2.28,57.49.42,9.11.15,18.3,1.98,27.3,2.03,9.98,6.4,18.43,16.58,22.34,7.6,2.92,15.5,3.1,23.35,1.21,7.28-1.75,13.46-5.38,17.5-11.93,3.25-5.28,3.6-11.24,3.37-17.2ZM480.95,242.43c-.24,2.17-.94,4.06-3.47,4.46-2.71.42-4.74-.74-5.67-3.28-.89-2.44-.84-5.03-.94-7.57-.76-18.92-1.45-37.84-2.19-56.75-.58-14.56-1.2-29.11-1.79-43.67-.6-14.64-1.2-29.28-1.8-43.92-.55-13.32-1.12-26.64-1.63-39.97-.18-4.66,1.06-6.53,4.24-6.79,3.35-.28,5.09,1.52,5.57,6.05.22,2.04.11,4.11.14,6.17.08,0,.15,0,.23,0,.62,16.04,1.23,32.08,1.87,48.11.58,14.56,1.19,29.11,1.79,43.67.6,14.56,1.18,29.11,1.8,43.67.66,15.37,1.37,30.75,2.04,46.12.05,1.23-.05,2.47-.19,3.7Z"/>
      <path class="cls-3" d="M506.71,242.14c-.82-21.71-1.76-43.42-2.66-65.13-.6-14.48-1.2-28.95-1.79-43.42-.92-22.54-1.81-45.07-2.75-67.61-.38-9.11-.1-18.29-2.85-27.15-2.07-5.66-4.98-10.75-9.98-14.35-13.66-9.83-33.44-7.04-44.02,5.93-.31.37-.6.74-.89,1.13-.03.26.08.65-.33.52h0s-.03-.01-.04-.02c.16.12.2.27.19.42,0,.08-.02.16-.04.24-.03.09-.07.18-.11.26-.14.31-.28.63-.41.94h0c-.02.05-.04.11-.06.16-.11.26-.22.52-.32.77-.04.1-.08.19-.11.29-.04.1-.08.19-.11.29-.06.16-.12.33-.18.49-.06.16-.12.32-.17.48-.1.26-.19.53-.27.79-.07.21-.14.42-.2.63-.05.16-.1.31-.14.47-.1.33-.2.66-.29,1-.09.32-.17.63-.25.96-.06.22-.11.45-.16.67-.03.12-.06.24-.08.36-.04.16-.08.33-.11.49-.13.57-.24,1.15-.34,1.72-.04.22-.08.44-.11.66-.07.42-.14.84-.19,1.26-.03.24-.06.48-.09.72-.02.14-.04.27-.05.41-.15,1.23-.25,2.46-.33,3.7,0,.08,0,.16-.01.24-.03.51-.05,1.02-.07,1.54,0,.22-.01.44-.02.66,0,.22-.01.45-.01.67,0,.2,0,.4,0,.6-.02,1.54.01,3.08.08,4.63.8,20.15,1.64,40.29,2.46,60.45.6,14.64,1.21,29.27,1.8,43.92.76,19.17,1.39,38.34,2.28,57.49.42,9.11.15,18.3,1.98,27.3,2.03,9.98,6.4,18.43,16.58,22.34,7.6,2.92,15.5,3.1,23.35,1.21,7.28-1.75,13.46-5.38,17.5-11.93,3.25-5.28,3.6-11.24,3.37-17.2ZM480.95,242.43c-.24,2.17-.94,4.06-3.47,4.46-2.71.42-4.74-.74-5.67-3.28-.89-2.44-.84-5.03-.94-7.57-.76-18.92-1.45-37.84-2.19-56.75-.58-14.56-1.2-29.11-1.79-43.67-.6-14.64-1.2-29.28-1.8-43.92-.55-13.32-1.12-26.64-1.63-39.97-.18-4.66,1.06-6.53,4.24-6.79,3.35-.28,5.09,1.52,5.57,6.05.22,2.04.11,4.11.14,6.17.08,0,.15,0,.23,0,.62,16.04,1.23,32.08,1.87,48.11.58,14.56,1.19,29.11,1.79,43.67.6,14.56,1.18,29.11,1.8,43.67.66,15.37,1.37,30.75,2.04,46.12.05,1.23-.05,2.47-.19,3.7Z"/>
      <path class="cls-3" d="M440.96,34.07c.02-.05.04-.1.06-.15l-.03.15h-.03Z"/>
      <path class="cls-3" d="M442.8,30.54l-1.2,1.9h0s-.02.03-.02.03c0-.15-.04-.3-.19-.42-.04-.01-.06,0-.11-.03l-.03-.08s.03.02.04.03c.05.03.1.06.14.09h0c.41.13.3-.26.33-.52.29-.38.58-.76.89-1.13l.14.13Z"/>
      <path class="cls-3" d="M441.39,32.04s-.06,0-.11-.03l-.03-.08s.03.02.04.03c.04.03.06.05.09.08Z"/>
      <path class="cls-3" d="M108.46,261.77c-4.53,6.24-10.97,9.32-18.42,10.38-8.74,1.24-17.18.25-24.77-4.53-8.27-5.21-11.94-13.2-12.39-22.69-.65-13.57-1.02-27.16-1.56-40.73-.91-23.21-1.84-46.41-2.77-69.61-.6-15.06-1.21-30.12-1.82-45.17-.49-12.26-1.02-24.52-1.48-36.78-.25-6.65.61-13.14,3.17-19.35.18-.44.2-.94.29-1.41,8.42-14.4,25.35-14.97,37.72-11.36,10.27,3,17.42,9.48,19.61,20.35.66,3.28.62,6.69.9,10.04.61,15.87,1.18,31.74,1.89,47.6.09,2.04-.49,2.55-2.4,2.52-7.25-.09-14.49-.09-21.74-.05-1.53,0-1.95-.58-1.99-2.04-.39-11.43-.83-22.86-1.29-34.29-.19-4.85-.33-9.71-.72-14.54-.3-3.73-1.61-4.94-4.74-5.09-2.57-.12-3.81.85-4.21,3.44-.65,4.2.11,8.38.25,12.56.41,13,.92,25.98,1.44,38.98.52,12.82,1.1,25.65,1.65,38.46-.02.66-.07,1.32-.04,1.97.46,11.39.92,22.79,1.4,34.18.35,8.28.73,16.55,1.1,24.83.47,12.59.93,25.18,1.42,37.77.06,1.64.21,3.29.46,4.91.45,2.99,1.84,4,5,3.78,2.52-.18,3.57-1.36,3.51-4.36-.32-16.14-1.01-32.26-1.88-48.39-.11-2.07.29-2.97,2.61-2.94,7.01.08,14.02,0,21.03-.11,1.79-.03,2.45.63,2.51,2.44.33,10.2.77,20.41,1.16,30.61.25,6.5.57,13,.71,19.5.14,6.92-1.45,13.43-5.57,19.1Z"/>
      <path class="cls-3" d="M389.69,242.84c.02,7.31-1.69,14.18-6.54,20-4.64,5.56-10.76,8.33-17.73,9.26-7.57,1.01-15,.31-21.93-3.2-9.68-4.9-14.27-13.18-14.86-23.69-.69-12.25-1-24.52-1.48-36.78-.92-23.04-1.84-46.07-2.77-69.11-.59-14.48-1.19-28.96-1.79-43.43-.58-13.9-1.22-27.8-1.73-41.71-.27-7.46.28-14.81,3.61-21.7.05-.11.12-.23.17-.35.02-.04.04-.08.05-.12.09-.25.11-.52-.19-.77-.03,0-.03,0-.05,0v-.05s0,0,.01,0c0,0,.01,0,.02,0,.15-.19.29-.37.44-.55,9.19-13.43,25.27-13.3,36.58-10.23,8.53,2.32,14.98,7.33,18.65,15.56,1.93,4.68,1.95,9.62,2.14,14.57.6,16.05,1.27,32.09,1.97,48.13.08,1.67-.23,2.33-2.11,2.3-7.08-.11-14.18-.12-21.26.02-2.01.04-2.58-.66-2.63-2.5-.26-7.98-.45-15.97-.96-23.94-.54-8.38-.24-16.8-1.23-25.15-.36-3-1.52-4.22-4.06-4.37-3.53-.2-4.98,1.21-4.93,5.11.05,4.53.25,9.05.43,13.58.26,6.5.58,13,.84,19.5.93,23.12,1.84,46.23,2.77,69.35.58,14.48,1.19,28.96,1.79,43.43.59,14.32,1.18,28.63,1.79,42.94.05,1.15.19,2.3.41,3.43.53,2.7,1.97,3.63,5.07,3.4,2.21-.17,3.46-1.42,3.38-4.01-.23-8.56-.6-17.12-.93-25.67-.31-7.82-.6-15.63-1.01-23.44-.1-1.84.43-2.44,2.3-2.42,7.08.08,14.18.08,21.26-.04,1.99-.03,2.57.69,2.63,2.54.31,9.87.71,19.75,1.09,29.62.26,6.83.75,13.66.77,20.49Z"/>
      <path class="cls-3" d="M313.69,270.72c-14.91-.08-29.83-.09-44.74-.03-1.77,0-2.04-.84-2.09-2.25-.29-7.98-.61-15.96-.93-23.94-.92-23.03-1.84-46.06-2.77-69.09-.58-14.15-1.19-28.29-1.76-42.43-.93-23.03-1.84-46.06-2.77-69.1-.56-13.82-1.15-27.63-1.73-41.45,0-.24.08-.48.13-.72,6.47-.57,12.96-.25,19.44-.34,8.81-.13,17.61.03,26.42-.07,2.36-.03,3.32.54,3.34,3.13.05,6.57.46,13.14.72,19.71.03.72.27,1.47-.19,2.16-6.17.25-12.34.37-18.52.12-1.59-.06-2.69,0-2.56,2.15.41,6.74.66,13.48.98,20.22.07,1.26.14,2.53.21,3.79.33,8.96.65,17.92.99,26.88.24,6.17.49,12.34.75,18.51.18,4.19.46,8.39.5,12.58.02,1.8.7,2.25,2.35,2.21,5.52-.12,11.05-.07,16.57-.23,1.87-.06,2.66.43,2.71,2.43.17,6.91.44,13.82.8,20.73.09,1.78-.64,2.09-2.14,2.09-5.52-.03-11.05.08-16.57,0-1.97-.03-2.72.41-2.62,2.6.76,16.36,1.39,32.73,2.07,49.1.46,11.1.99,22.2,1.38,33.31.06,1.69.7,2.06,2.22,2.04,5.6-.09,11.21-.02,16.81-.15,1.95-.04,2.54.64,2.59,2.56.19,6.99.49,13.99.87,20.97.11,1.97-.51,2.52-2.47,2.51Z"/>
      <path class="cls-3" d="M313.69,270.72c-14.91-.08-29.83-.09-44.74-.03-1.77,0-2.04-.84-2.09-2.25-.29-7.98-.61-15.96-.93-23.94-.92-23.03-1.84-46.06-2.77-69.09-.58-14.15-1.19-28.29-1.76-42.43-.93-23.03-1.84-46.06-2.77-69.1-.56-13.82-1.15-27.63-1.73-41.45,0-.24.08-.48.13-.72,6.47-.57,12.96-.25,19.44-.34,8.81-.13,17.61.03,26.42-.07,2.36-.03,3.32.54,3.34,3.13.05,6.57.46,13.14.72,19.71.03.72.27,1.47-.19,2.16-6.17.25-12.34.37-18.52.12-1.59-.06-2.69,0-2.56,2.15.41,6.74.66,13.48.98,20.22.07,1.26.14,2.53.21,3.79.33,8.96.65,17.92.99,26.88.24,6.17.49,12.34.75,18.51.18,4.19.46,8.39.5,12.58.02,1.8.7,2.25,2.35,2.21,5.52-.12,11.05-.07,16.57-.23,1.87-.06,2.66.43,2.71,2.43.17,6.91.44,13.82.8,20.73.09,1.78-.64,2.09-2.14,2.09-5.52-.03-11.05.08-16.57,0-1.97-.03-2.72.41-2.62,2.6.76,16.36,1.39,32.73,2.07,49.1.46,11.1.99,22.2,1.38,33.31.06,1.69.7,2.06,2.22,2.04,5.6-.09,11.21-.02,16.81-.15,1.95-.04,2.54.64,2.59,2.56.19,6.99.49,13.99.87,20.97.11,1.97-.51,2.52-2.47,2.51Z"/>
      <path class="cls-3" d="M655.5,270.45c-14.68.01-29.35.08-44.02.18-2.01.01-2.85-.58-2.93-2.81-.62-18.52-1.39-37.02-2.14-55.53-.57-13.89-1.18-27.8-1.76-41.69-.9-22.04-1.79-44.08-2.71-66.12-.57-13.91-1.16-27.8-1.76-41.71-.58-13.65-1.36-27.28-1.59-40.94,3.41-.96,6.87-.27,10.3-.31,10.73-.14,21.46-.04,32.2-.1l-.36,25.11c-3.74-.01-7.5.03-11.25-.06-1.74-.04-2.31.36-2.23,2.16.72,16.11,1.37,32.24,2.04,48.36.46,10.94.99,21.87,1.36,32.82.08,2.05.56,2.87,2.78,2.81,5.51-.14,11.04.04,16.55-.05,1.72-.03,2.27.46,2.32,2.21.19,6.74.45,13.49.88,20.22.14,2.26-.63,2.83-2.75,2.78-5.19-.13-10.38.05-15.57-.12-2.44-.08-3.06.76-2.94,3.11.8,16.53,1.51,33.05,2.21,49.58.43,10.2.79,20.4,1.16,30.6.13,3.68.12,3.64,3.63,3.64,5.28,0,10.55.1,15.83.08,1.63,0,2.3.48,2.35,2.25.19,7,.48,13.98.88,20.97.1,1.98-.53,2.58-2.48,2.58Z"/>
      <path class="cls-3" d="M255.28,269.09c.06,1.32-.45,1.67-1.73,1.67-14.91-.04-29.82-.08-44.74,0-2.02.01-2.71-.49-2.77-2.55-.26-8.56-.69-17.11-1.03-25.66-.93-23.28-1.85-46.55-2.78-69.83-.58-14.48-1.2-28.95-1.78-43.42-.93-23.11-1.84-46.22-2.78-69.33-.52-12.74-1.32-25.48-1.47-38.23,1.02-.93,2.21-.27,3.3-.28,7.24-.08,14.48.03,21.71-.15,2.27-.06,2.73.77,2.8,2.81.39,10.67.92,21.34,1.4,32,.77,20.24,1.51,40.47,2.3,60.71.57,14.48,1.2,28.95,1.78,43.42.93,23.11,1.85,46.22,2.78,69.33.17,4.36.46,8.71.56,13.07.04,1.59.48,2.11,2.14,2.09,5.76-.08,11.53.06,17.3.02,1.43,0,2.07.32,2.12,1.88.24,7.49.56,14.97.9,22.45Z"/>
      <path class="cls-3" d="M255.28,269.09c.06,1.32-.45,1.67-1.73,1.67-14.91-.04-29.82-.08-44.74,0-2.02.01-2.71-.49-2.77-2.55-.26-8.56-.69-17.11-1.03-25.66-.93-23.28-1.85-46.55-2.78-69.83-.58-14.48-1.2-28.95-1.78-43.42-.93-23.11-1.84-46.22-2.78-69.33-.52-12.74-1.32-25.48-1.47-38.23,1.02-.93,2.21-.27,3.3-.28,7.24-.08,14.48.03,21.71-.15,2.27-.06,2.73.77,2.8,2.81.39,10.67.92,21.34,1.4,32,.77,20.24,1.51,40.47,2.3,60.71.57,14.48,1.2,28.95,1.78,43.42.93,23.11,1.85,46.22,2.78,69.33.17,4.36.46,8.71.56,13.07.04,1.59.48,2.11,2.14,2.09,5.76-.08,11.53.06,17.3.02,1.43,0,2.07.32,2.12,1.88.24,7.49.56,14.97.9,22.45Z"/>
      <path class="cls-3" d="M428.52,270.66c-7.5-.13-15-.12-22.5-.04-1.82.02-2.48-.64-2.54-2.41-.27-7.98-.6-15.96-.93-23.94-.91-22.62-1.82-45.25-2.74-67.87-.58-13.99-1.18-27.97-1.76-41.95-.93-22.71-1.83-45.41-2.75-68.12-.57-13.9-1.18-27.8-1.74-41.71-.04-.97-.25-1.97.15-2.93,5.49-.53,10.99-.21,16.49-.31,2.79-.05,5.6.2,8.38.06,1.94-.09,2.29.69,2.35,2.43.28,8.87.68,17.73,1.05,26.6.03.57.14,1.14.21,1.7.55,14.32,1.07,28.64,1.64,42.95.88,22.13,1.8,44.26,2.71,66.39.59,14.4,1.19,28.79,1.79,43.19.88,21.06,1.74,42.12,2.67,63.17.08,1.94-.26,2.82-2.47,2.78Z"/>
      <path class="cls-3" d="M428.52,270.66c-7.5-.13-15-.12-22.5-.04-1.82.02-2.48-.64-2.54-2.41-.27-7.98-.6-15.96-.93-23.94-.91-22.62-1.82-45.25-2.74-67.87-.58-13.99-1.18-27.97-1.76-41.95-.93-22.71-1.83-45.41-2.75-68.12-.57-13.9-1.18-27.8-1.74-41.71-.04-.97-.25-1.97.15-2.93,5.49-.53,10.99-.21,16.49-.31,2.79-.05,5.6.2,8.38.06,1.94-.09,2.29.69,2.35,2.43.28,8.87.68,17.73,1.05,26.6.03.57.14,1.14.21,1.7.55,14.32,1.07,28.64,1.64,42.95.88,22.13,1.8,44.26,2.71,66.39.59,14.4,1.19,28.79,1.79,43.19.88,21.06,1.74,42.12,2.67,63.17.08,1.94-.26,2.82-2.47,2.78Z"/>
    </g>
    <path class="cls-1" d="M695.49,8.99l-.85,58.13c0,.05-.06.08-.1.04l-3.77-3.49-21.42-19.82s-.05-.01-.08,0l-6.53,5.63-2,1.73-17.64,15.2s-.1,0-.1-.05l.3-20.36.04-2.04.36-25.13.03-1.76.13-8.59c.06-4.75,3.9-8.55,8.55-8.48l35.06.52c4.52.06,8.11,3.86,8.04,8.47Z"/>
  </g>
</svg>